<?xml version="1.0" encoding="utf-8"?>
<!-- Generator: Adobe Illustrator 25.4.1, SVG Export Plug-In . SVG Version: 6.00 Build 0)  -->
<svg version="1.1" id="arrow-circle-down" xmlns="http://www.w3.org/2000/svg" xmlns:xlink="http://www.w3.org/1999/xlink" x="0px"
	 y="0px" viewBox="0 0 512 512" style="enable-background:new 0 0 512 512;" xml:space="preserve">
<style type="text/css">
	.st0{fill:#FFFFFF;}
</style>
<path class="st0" d="M512,256C512,114.6,397.4,0,256,0S0,114.6,0,256s114.6,256,256,256C397.3,511.8,511.8,397.3,512,256z
	 M170.7,256c0-15.6,5.7-30.7,16-42.4c6.2-7,12.2-13.6,16.6-17.9l60.2-61.3c8.6-8.1,22.1-7.6,30.2,0.9c7.6,8.1,7.7,20.7,0.3,28.9
	l-60.4,61.4c-4,4-9.4,10-14.9,16.2c-7.1,8.1-7.1,20.2,0,28.2c5.5,6.2,10.9,12.2,14.8,16l60.5,61.6c7.9,8.7,7.2,22.2-1.5,30.1
	c-8.2,7.5-20.8,7.3-28.9-0.3l-60.4-61.4c-4.3-4.3-10.2-10.8-16.4-17.8C176.4,286.7,170.7,271.6,170.7,256z"/>
</svg>
