<svg width="1905" height="2252" viewBox="0 0 1905 2252" fill="none" xmlns="http://www.w3.org/2000/svg">
<g clip-path="url(#clip0_854_1079)">
<rect x="-45" y="-42" width="2049" height="2384" fill="#530084"/>
<g style="mix-blend-mode:overlay" opacity="0.1">
<rect x="75.2436" y="909.741" width="57.9592" height="646.761" rx="28.9796" transform="rotate(127.31 75.2436 909.741)" fill="white"/>
<rect x="75.2436" y="909.741" width="57.9592" height="646.761" rx="28.9796" transform="rotate(127.31 75.2436 909.741)" stroke="white" stroke-linecap="round"/>
</g>
<g style="mix-blend-mode:overlay" opacity="0.1" filter="url(#filter0_d_854_1079)">
<rect x="1815.09" y="1622.67" width="58.9592" height="57.6152" rx="28.8076" transform="rotate(127.31 1815.09 1622.67)" fill="white"/>
<rect x="1814.39" y="1622.76" width="57.9592" height="56.6152" rx="28.3076" transform="rotate(127.31 1814.39 1622.76)" stroke="white" stroke-linecap="round"/>
</g>
<g style="mix-blend-mode:overlay" opacity="0.1">
<rect x="492.902" y="608.521" width="57.9592" height="646.761" rx="28.9796" transform="rotate(127.31 492.902 608.521)" fill="white" stroke="white" stroke-linecap="round"/>
<rect x="1739.89" y="1564.86" width="57.9592" height="1426.91" rx="28.9796" transform="rotate(127.31 1739.89 1564.86)" fill="white" stroke="white" stroke-linecap="round"/>
<g filter="url(#filter1_d_854_1079)">
<rect x="574.77" y="675.974" width="58.9592" height="57.6152" rx="28.8076" transform="rotate(127.31 574.77 675.974)" fill="white"/>
<rect x="574.069" y="676.069" width="57.9592" height="56.6152" rx="28.3076" transform="rotate(127.31 574.069 676.069)" stroke="white" stroke-linecap="round"/>
</g>
<rect x="216.995" y="594.599" width="57.9592" height="646.761" rx="28.9796" transform="rotate(127.31 216.995 594.599)" fill="white" stroke="white" stroke-linecap="round"/>
<rect x="1326.21" y="1445.95" width="57.9592" height="1253.69" rx="28.9796" transform="rotate(127.31 1326.21 1445.95)" fill="white" stroke="white" stroke-linecap="round"/>
<g filter="url(#filter2_d_854_1079)">
<rect x="298.862" y="662.052" width="58.9592" height="57.6152" rx="28.8076" transform="rotate(127.31 298.862 662.052)" fill="white"/>
<rect x="298.162" y="662.147" width="57.9592" height="56.6152" rx="28.3076" transform="rotate(127.31 298.162 662.147)" stroke="white" stroke-linecap="round"/>
</g>
<rect x="229.651" y="818.616" width="57.9592" height="646.761" rx="28.9796" transform="rotate(127.31 229.651 818.616)" fill="white" stroke="white" stroke-linecap="round"/>
<rect x="1404.67" y="1720.11" width="57.9592" height="1336.43" rx="28.9796" transform="rotate(127.31 1404.67 1720.11)" fill="white" stroke="white" stroke-linecap="round"/>
<g filter="url(#filter3_d_854_1079)">
<rect x="311.519" y="886.069" width="58.9592" height="57.6152" rx="28.8076" transform="rotate(127.31 311.519 886.069)" fill="white"/>
<rect x="310.818" y="886.164" width="57.9592" height="56.6152" rx="28.3076" transform="rotate(127.31 310.818 886.164)" stroke="white" stroke-linecap="round"/>
</g>
<g filter="url(#filter4_d_854_1079)">
<rect x="1487.29" y="1778.34" width="58.9592" height="57.6152" rx="28.8076" transform="rotate(127.31 1487.29 1778.34)" fill="white"/>
<rect x="1486.59" y="1778.43" width="57.9592" height="56.6152" rx="28.3076" transform="rotate(127.31 1486.59 1778.43)" stroke="white" stroke-linecap="round"/>
</g>
<g filter="url(#filter5_d_854_1079)">
<rect x="1406.29" y="1504.96" width="58.9592" height="57.6152" rx="28.8076" transform="rotate(127.31 1406.29 1504.96)" fill="white"/>
<rect x="1405.59" y="1505.06" width="57.9592" height="56.6152" rx="28.3076" transform="rotate(127.31 1405.59 1505.06)" stroke="white" stroke-linecap="round"/>
</g>
<rect x="979.66" y="1605.01" width="57.9592" height="996.195" rx="28.9796" transform="rotate(127.31 979.66 1605.01)" fill="white" stroke="white" stroke-linecap="round"/>
<rect x="1874.46" y="2294.78" width="57.9592" height="996.195" rx="28.9796" transform="rotate(127.31 1874.46 2294.78)" fill="white" stroke="white" stroke-linecap="round"/>
<rect x="2307.31" y="2403.63" width="57.9592" height="996.195" rx="28.9796" transform="rotate(127.31 2307.31 2403.63)" fill="white" stroke="white" stroke-linecap="round"/>
<g filter="url(#filter6_d_854_1079)">
<rect x="157.112" y="977.195" width="58.9592" height="57.6152" rx="28.8076" transform="rotate(127.31 157.112 977.195)" fill="white"/>
<rect x="156.411" y="977.289" width="57.9592" height="56.6152" rx="28.3076" transform="rotate(127.31 156.411 977.289)" stroke="white" stroke-linecap="round"/>
</g>
</g>
<g style="mix-blend-mode:overlay" opacity="0.1">
<rect x="2238.96" y="2145.44" width="57.9592" height="996.195" rx="28.9796" transform="rotate(127.31 2238.96 2145.44)" fill="white"/>
<rect x="2238.96" y="2145.44" width="57.9592" height="996.195" rx="28.9796" transform="rotate(127.31 2238.96 2145.44)" stroke="white" stroke-linecap="round"/>
</g>
<g style="mix-blend-mode:overlay" opacity="0.1">
<rect x="1545.91" y="284.519" width="57.9592" height="646.761" rx="28.9796" transform="rotate(127.31 1545.91 284.519)" fill="white" stroke="white" stroke-linecap="round"/>
<rect x="2942.16" y="1354.61" width="57.9592" height="1614.57" rx="28.9796" transform="rotate(127.31 2942.16 1354.61)" fill="white" stroke="white" stroke-linecap="round"/>
<g filter="url(#filter7_d_854_1079)">
<rect x="1627.78" y="351.973" width="58.9592" height="57.6152" rx="28.8076" transform="rotate(127.31 1627.78 351.973)" fill="white"/>
<rect x="1627.08" y="352.067" width="57.9592" height="56.6152" rx="28.3076" transform="rotate(127.31 1627.08 352.067)" stroke="white" stroke-linecap="round"/>
</g>
<rect x="1432" y="37.7207" width="57.9592" height="646.761" rx="28.9796" transform="rotate(127.31 1432 37.7207)" fill="white" stroke="white" stroke-linecap="round"/>
<rect x="2828.25" y="1107.81" width="57.9592" height="1614.57" rx="28.9796" transform="rotate(127.31 2828.25 1107.81)" fill="white" stroke="white" stroke-linecap="round"/>
<g filter="url(#filter8_d_854_1079)">
<rect x="1513.87" y="105.174" width="58.9592" height="57.6152" rx="28.8076" transform="rotate(127.31 1513.87 105.174)" fill="white"/>
<rect x="1513.17" y="105.269" width="57.9592" height="56.6152" rx="28.3076" transform="rotate(127.31 1513.17 105.269)" stroke="white" stroke-linecap="round"/>
</g>
<rect x="1692.72" y="76.9553" width="57.9592" height="646.761" rx="28.9796" transform="rotate(127.31 1692.72 76.9553)" fill="white" stroke="white" stroke-linecap="round"/>
<rect x="3088.97" y="1147.04" width="57.9592" height="1614.57" rx="28.9796" transform="rotate(127.31 3088.97 1147.04)" fill="white" stroke="white" stroke-linecap="round"/>
<g filter="url(#filter9_d_854_1079)">
<rect x="1774.59" y="144.409" width="58.9592" height="57.6152" rx="28.8076" transform="rotate(127.31 1774.59 144.409)" fill="white"/>
<rect x="1773.89" y="144.504" width="57.9592" height="56.6152" rx="28.3076" transform="rotate(127.31 1773.89 144.504)" stroke="white" stroke-linecap="round"/>
</g>
<rect x="1939.28" y="89.3876" width="57.9592" height="345.711" rx="28.9796" transform="rotate(127.31 1939.28 89.3876)" fill="white" stroke="white" stroke-linecap="round"/>
</g>
<g style="mix-blend-mode:overlay" opacity="0.1">
<rect x="2642.7" y="2251.75" width="57.9592" height="996.195" rx="28.9796" transform="rotate(127.31 2642.7 2251.75)" fill="white"/>
<rect x="2642.7" y="2251.75" width="57.9592" height="996.195" rx="28.9796" transform="rotate(127.31 2642.7 2251.75)" stroke="white" stroke-linecap="round"/>
</g>
</g>
<defs>
<filter id="filter0_d_854_1079" x="1741.09" y="1599.31" width="66.4331" height="66.6873" filterUnits="userSpaceOnUse" color-interpolation-filters="sRGB">
<feFlood flood-opacity="0" result="BackgroundImageFix"/>
<feColorMatrix in="SourceAlpha" type="matrix" values="0 0 0 0 0 0 0 0 0 0 0 0 0 0 0 0 0 0 127 0" result="hardAlpha"/>
<feOffset dy="4"/>
<feGaussianBlur stdDeviation="2"/>
<feComposite in2="hardAlpha" operator="out"/>
<feColorMatrix type="matrix" values="0 0 0 0 0 0 0 0 0 0 0 0 0 0 0 0 0 0 0.25 0"/>
<feBlend mode="normal" in2="BackgroundImageFix" result="effect1_dropShadow_854_1079"/>
<feBlend mode="normal" in="SourceGraphic" in2="effect1_dropShadow_854_1079" result="shape"/>
</filter>
<filter id="filter1_d_854_1079" x="500.772" y="652.617" width="66.4331" height="66.6873" filterUnits="userSpaceOnUse" color-interpolation-filters="sRGB">
<feFlood flood-opacity="0" result="BackgroundImageFix"/>
<feColorMatrix in="SourceAlpha" type="matrix" values="0 0 0 0 0 0 0 0 0 0 0 0 0 0 0 0 0 0 127 0" result="hardAlpha"/>
<feOffset dy="4"/>
<feGaussianBlur stdDeviation="2"/>
<feComposite in2="hardAlpha" operator="out"/>
<feColorMatrix type="matrix" values="0 0 0 0 0 0 0 0 0 0 0 0 0 0 0 0 0 0 0.25 0"/>
<feBlend mode="normal" in2="BackgroundImageFix" result="effect1_dropShadow_854_1079"/>
<feBlend mode="normal" in="SourceGraphic" in2="effect1_dropShadow_854_1079" result="shape"/>
</filter>
<filter id="filter2_d_854_1079" x="224.865" y="638.695" width="66.4331" height="66.6873" filterUnits="userSpaceOnUse" color-interpolation-filters="sRGB">
<feFlood flood-opacity="0" result="BackgroundImageFix"/>
<feColorMatrix in="SourceAlpha" type="matrix" values="0 0 0 0 0 0 0 0 0 0 0 0 0 0 0 0 0 0 127 0" result="hardAlpha"/>
<feOffset dy="4"/>
<feGaussianBlur stdDeviation="2"/>
<feComposite in2="hardAlpha" operator="out"/>
<feColorMatrix type="matrix" values="0 0 0 0 0 0 0 0 0 0 0 0 0 0 0 0 0 0 0.25 0"/>
<feBlend mode="normal" in2="BackgroundImageFix" result="effect1_dropShadow_854_1079"/>
<feBlend mode="normal" in="SourceGraphic" in2="effect1_dropShadow_854_1079" result="shape"/>
</filter>
<filter id="filter3_d_854_1079" x="237.521" y="862.712" width="66.4331" height="66.6872" filterUnits="userSpaceOnUse" color-interpolation-filters="sRGB">
<feFlood flood-opacity="0" result="BackgroundImageFix"/>
<feColorMatrix in="SourceAlpha" type="matrix" values="0 0 0 0 0 0 0 0 0 0 0 0 0 0 0 0 0 0 127 0" result="hardAlpha"/>
<feOffset dy="4"/>
<feGaussianBlur stdDeviation="2"/>
<feComposite in2="hardAlpha" operator="out"/>
<feColorMatrix type="matrix" values="0 0 0 0 0 0 0 0 0 0 0 0 0 0 0 0 0 0 0.25 0"/>
<feBlend mode="normal" in2="BackgroundImageFix" result="effect1_dropShadow_854_1079"/>
<feBlend mode="normal" in="SourceGraphic" in2="effect1_dropShadow_854_1079" result="shape"/>
</filter>
<filter id="filter4_d_854_1079" x="1413.29" y="1754.98" width="66.4331" height="66.6873" filterUnits="userSpaceOnUse" color-interpolation-filters="sRGB">
<feFlood flood-opacity="0" result="BackgroundImageFix"/>
<feColorMatrix in="SourceAlpha" type="matrix" values="0 0 0 0 0 0 0 0 0 0 0 0 0 0 0 0 0 0 127 0" result="hardAlpha"/>
<feOffset dy="4"/>
<feGaussianBlur stdDeviation="2"/>
<feComposite in2="hardAlpha" operator="out"/>
<feColorMatrix type="matrix" values="0 0 0 0 0 0 0 0 0 0 0 0 0 0 0 0 0 0 0.25 0"/>
<feBlend mode="normal" in2="BackgroundImageFix" result="effect1_dropShadow_854_1079"/>
<feBlend mode="normal" in="SourceGraphic" in2="effect1_dropShadow_854_1079" result="shape"/>
</filter>
<filter id="filter5_d_854_1079" x="1332.29" y="1481.61" width="66.4331" height="66.6873" filterUnits="userSpaceOnUse" color-interpolation-filters="sRGB">
<feFlood flood-opacity="0" result="BackgroundImageFix"/>
<feColorMatrix in="SourceAlpha" type="matrix" values="0 0 0 0 0 0 0 0 0 0 0 0 0 0 0 0 0 0 127 0" result="hardAlpha"/>
<feOffset dy="4"/>
<feGaussianBlur stdDeviation="2"/>
<feComposite in2="hardAlpha" operator="out"/>
<feColorMatrix type="matrix" values="0 0 0 0 0 0 0 0 0 0 0 0 0 0 0 0 0 0 0.25 0"/>
<feBlend mode="normal" in2="BackgroundImageFix" result="effect1_dropShadow_854_1079"/>
<feBlend mode="normal" in="SourceGraphic" in2="effect1_dropShadow_854_1079" result="shape"/>
</filter>
<filter id="filter6_d_854_1079" x="83.1143" y="953.837" width="66.4331" height="66.6872" filterUnits="userSpaceOnUse" color-interpolation-filters="sRGB">
<feFlood flood-opacity="0" result="BackgroundImageFix"/>
<feColorMatrix in="SourceAlpha" type="matrix" values="0 0 0 0 0 0 0 0 0 0 0 0 0 0 0 0 0 0 127 0" result="hardAlpha"/>
<feOffset dy="4"/>
<feGaussianBlur stdDeviation="2"/>
<feComposite in2="hardAlpha" operator="out"/>
<feColorMatrix type="matrix" values="0 0 0 0 0 0 0 0 0 0 0 0 0 0 0 0 0 0 0.25 0"/>
<feBlend mode="normal" in2="BackgroundImageFix" result="effect1_dropShadow_854_1079"/>
<feBlend mode="normal" in="SourceGraphic" in2="effect1_dropShadow_854_1079" result="shape"/>
</filter>
<filter id="filter7_d_854_1079" x="1553.78" y="328.615" width="66.4331" height="66.6873" filterUnits="userSpaceOnUse" color-interpolation-filters="sRGB">
<feFlood flood-opacity="0" result="BackgroundImageFix"/>
<feColorMatrix in="SourceAlpha" type="matrix" values="0 0 0 0 0 0 0 0 0 0 0 0 0 0 0 0 0 0 127 0" result="hardAlpha"/>
<feOffset dy="4"/>
<feGaussianBlur stdDeviation="2"/>
<feComposite in2="hardAlpha" operator="out"/>
<feColorMatrix type="matrix" values="0 0 0 0 0 0 0 0 0 0 0 0 0 0 0 0 0 0 0.25 0"/>
<feBlend mode="normal" in2="BackgroundImageFix" result="effect1_dropShadow_854_1079"/>
<feBlend mode="normal" in="SourceGraphic" in2="effect1_dropShadow_854_1079" result="shape"/>
</filter>
<filter id="filter8_d_854_1079" x="1439.87" y="81.8168" width="66.4331" height="66.6872" filterUnits="userSpaceOnUse" color-interpolation-filters="sRGB">
<feFlood flood-opacity="0" result="BackgroundImageFix"/>
<feColorMatrix in="SourceAlpha" type="matrix" values="0 0 0 0 0 0 0 0 0 0 0 0 0 0 0 0 0 0 127 0" result="hardAlpha"/>
<feOffset dy="4"/>
<feGaussianBlur stdDeviation="2"/>
<feComposite in2="hardAlpha" operator="out"/>
<feColorMatrix type="matrix" values="0 0 0 0 0 0 0 0 0 0 0 0 0 0 0 0 0 0 0.25 0"/>
<feBlend mode="normal" in2="BackgroundImageFix" result="effect1_dropShadow_854_1079"/>
<feBlend mode="normal" in="SourceGraphic" in2="effect1_dropShadow_854_1079" result="shape"/>
</filter>
<filter id="filter9_d_854_1079" x="1700.59" y="121.051" width="66.4331" height="66.6872" filterUnits="userSpaceOnUse" color-interpolation-filters="sRGB">
<feFlood flood-opacity="0" result="BackgroundImageFix"/>
<feColorMatrix in="SourceAlpha" type="matrix" values="0 0 0 0 0 0 0 0 0 0 0 0 0 0 0 0 0 0 127 0" result="hardAlpha"/>
<feOffset dy="4"/>
<feGaussianBlur stdDeviation="2"/>
<feComposite in2="hardAlpha" operator="out"/>
<feColorMatrix type="matrix" values="0 0 0 0 0 0 0 0 0 0 0 0 0 0 0 0 0 0 0.25 0"/>
<feBlend mode="normal" in2="BackgroundImageFix" result="effect1_dropShadow_854_1079"/>
<feBlend mode="normal" in="SourceGraphic" in2="effect1_dropShadow_854_1079" result="shape"/>
</filter>
<clipPath id="clip0_854_1079">
<rect width="1905" height="2252" fill="white"/>
</clipPath>
</defs>
</svg>
