<svg width="261" height="59" viewBox="0 0 261 59" fill="none" xmlns="http://www.w3.org/2000/svg">
<ellipse cx="236" cy="19" rx="20" ry="19" fill="#C4C4C4"/>
<rect x="54" y="12" width="182" height="18" fill="#C4C4C4"/>
<ellipse cx="47" cy="19" rx="20" ry="19" fill="#F3C42E"/>
<path opacity="0.6" d="M231.068 27V24.8027L235.648 19.9785C236.059 19.5098 236.384 19.0964 236.625 18.7383C236.866 18.3802 237.038 18.0514 237.143 17.752C237.253 17.4525 237.309 17.1628 237.309 16.8828C237.309 16.4206 237.185 16.0299 236.938 15.7109C236.69 15.3854 236.319 15.2227 235.824 15.2227C235.284 15.2227 234.883 15.4147 234.623 15.7988C234.363 16.1764 234.232 16.6875 234.232 17.332H230.883L230.863 17.2734C230.844 16.3945 231.033 15.6003 231.43 14.8906C231.833 14.181 232.413 13.6178 233.168 13.2012C233.923 12.7845 234.812 12.5762 235.834 12.5762C236.856 12.5762 237.732 12.7552 238.461 13.1133C239.197 13.4648 239.76 13.9629 240.15 14.6074C240.548 15.2454 240.746 15.9941 240.746 16.8535C240.746 17.4395 240.645 17.9798 240.443 18.4746C240.248 18.9629 239.923 19.487 239.467 20.0469C239.018 20.6068 238.415 21.2839 237.66 22.0781L235.512 24.3535L235.531 24.4023H238.354L238.5 23.2207H241.068V27H231.068Z" fill="white"/>
<path d="M42.6836 27V24.998L45.2129 24.6855V15.7012L42.6641 15.6719V13.7773L48.6309 12.7812V24.6855L51.1602 24.998V27H42.6836Z" fill="white"/>
<path d="M0.315529 56V54.8989L1.13731 54.7002V49.4902L0.315529 49.2861V48.1797H1.13731H3.97861C4.68402 48.1797 5.30886 48.3444 5.85313 48.6738C6.3974 48.9997 6.8235 49.4526 7.13145 50.0327C7.43939 50.6092 7.59336 51.2752 7.59336 52.0308V52.1543C7.59336 52.9098 7.43939 53.5776 7.13145 54.1577C6.8235 54.7342 6.3974 55.1854 5.85313 55.5112C5.30886 55.8371 4.68402 56 3.97861 56H0.315529ZM3.02256 54.5713H3.88194C4.2794 54.5713 4.6124 54.471 4.88096 54.2705C5.14951 54.07 5.35182 53.7889 5.48789 53.4272C5.62754 53.062 5.69736 52.6377 5.69736 52.1543V52.0254C5.69736 51.542 5.62754 51.1195 5.48789 50.7578C5.35182 50.3962 5.14951 50.1151 4.88096 49.9146C4.6124 49.714 4.2794 49.6138 3.88194 49.6138H3.02256V54.5713ZM10.0643 56.1128C9.5021 56.1128 9.04377 55.9535 8.68928 55.6348C8.33479 55.3161 8.15754 54.8918 8.15754 54.3618C8.15754 54.0002 8.25422 53.6797 8.44758 53.4004C8.64452 53.1211 8.93814 52.9027 9.32844 52.7451C9.72232 52.584 10.2147 52.5034 10.8055 52.5034H11.4124V52.1597C11.4124 51.9269 11.3462 51.73 11.2137 51.5688C11.0812 51.4041 10.8717 51.3218 10.5853 51.3218C10.4635 51.3218 10.3489 51.3379 10.2415 51.3701C10.1377 51.3988 10.0428 51.4417 9.95686 51.499L9.82795 52.2402H8.50129L8.47444 50.6235C8.80386 50.4767 9.14761 50.3496 9.50569 50.2422C9.86734 50.1348 10.2702 50.0811 10.7142 50.0811C11.5055 50.0811 12.1339 50.2637 12.5994 50.6289C13.0649 50.9906 13.2977 51.508 13.2977 52.1812V54.3242C13.2977 54.4066 13.2977 54.4871 13.2977 54.5659C13.3013 54.6447 13.3102 54.7199 13.3245 54.7915L13.953 54.8989V56H11.7508C11.7043 55.9355 11.6541 55.8496 11.6004 55.7422C11.5467 55.6348 11.5091 55.5273 11.4876 55.4199C11.3122 55.6383 11.1152 55.8084 10.8968 55.9302C10.6784 56.0519 10.4009 56.1128 10.0643 56.1128ZM10.6444 54.7808C10.7804 54.7808 10.9165 54.7539 11.0526 54.7002C11.1922 54.6429 11.3122 54.5588 11.4124 54.4478V53.6099H10.827C10.5727 53.6099 10.3758 53.6654 10.2362 53.7764C10.1001 53.8874 10.0321 54.0342 10.0321 54.2168C10.0321 54.3923 10.0893 54.5301 10.2039 54.6304C10.3185 54.7306 10.4653 54.7808 10.6444 54.7808ZM16.3379 56.1128C15.8832 56.1128 15.4911 55.9928 15.1617 55.7529C14.8358 55.513 14.5852 55.1764 14.4097 54.7432C14.2378 54.3063 14.1519 53.7979 14.1519 53.2178V53.105C14.1519 52.4998 14.2396 51.9717 14.4151 51.5205C14.5905 51.0658 14.8394 50.7131 15.1617 50.4624C15.4875 50.2082 15.8724 50.0811 16.3164 50.0811C16.6244 50.0811 16.8894 50.1455 17.1114 50.2744C17.337 50.3997 17.5339 50.577 17.7022 50.8062V48.8994L16.8858 48.7275V47.6211H17.7022H19.5874V54.7271L20.2642 54.8989V56H17.9546L17.815 55.2803C17.6395 55.5524 17.4318 55.7601 17.1919 55.9033C16.952 56.043 16.6674 56.1128 16.3379 56.1128ZM16.9234 54.668C17.0809 54.668 17.2277 54.6375 17.3638 54.5767C17.4999 54.5158 17.6127 54.4245 17.7022 54.3027V51.9771C17.6127 51.8302 17.5017 51.7192 17.3692 51.644C17.2403 51.5653 17.0953 51.5259 16.9341 51.5259C16.7193 51.5259 16.5456 51.5921 16.4131 51.7246C16.2806 51.8571 16.184 52.0415 16.1231 52.2778C16.0658 52.5142 16.0372 52.7899 16.0372 53.105V53.2178C16.0372 53.6797 16.1016 54.0378 16.2305 54.292C16.3594 54.5426 16.5904 54.668 16.9234 54.668ZM23.2722 56.1128C22.6742 56.1128 22.1622 55.9893 21.7361 55.7422C21.3136 55.4915 20.9895 55.1442 20.7639 54.7002C20.5419 54.2526 20.4309 53.7352 20.4309 53.1479V53.0405C20.4309 52.4604 20.5419 51.9484 20.7639 51.5044C20.9895 51.0604 21.3136 50.7131 21.7361 50.4624C22.1586 50.2082 22.6671 50.0811 23.2615 50.0811C23.8595 50.0811 24.3679 50.2064 24.7869 50.457C25.2094 50.7077 25.5317 51.055 25.7537 51.499C25.9793 51.943 26.0921 52.4569 26.0921 53.0405V53.1479C26.0921 53.7316 25.9793 54.2472 25.7537 54.6948C25.5317 55.1388 25.2094 55.4862 24.7869 55.7368C24.3679 55.9875 23.863 56.1128 23.2722 56.1128ZM23.2722 54.6787C23.5014 54.6787 23.684 54.6178 23.8201 54.4961C23.9597 54.3708 24.06 54.1935 24.1209 53.9644C24.1853 53.7352 24.2175 53.4631 24.2175 53.1479V53.0405C24.2175 52.7362 24.1853 52.4712 24.1209 52.2456C24.06 52.0164 23.9597 51.8392 23.8201 51.7139C23.6804 51.585 23.4942 51.5205 23.2615 51.5205C23.0323 51.5205 22.8479 51.585 22.7083 51.7139C22.5686 51.8392 22.4684 52.0164 22.4075 52.2456C22.3466 52.4712 22.3162 52.7362 22.3162 53.0405V53.1479C22.3162 53.4666 22.3466 53.7406 22.4075 53.9697C22.4684 54.1989 22.5686 54.3743 22.7083 54.4961C22.8479 54.6178 23.0359 54.6787 23.2722 54.6787ZM29.0732 56.1128C28.6149 56.1128 28.187 56.0716 27.7895 55.9893C27.3957 55.9033 27.0394 55.7869 26.7207 55.6401L26.6992 53.8301H27.9722L28.187 54.6733C28.2622 54.7199 28.3589 54.7611 28.477 54.7969C28.5952 54.8291 28.7366 54.8452 28.9014 54.8452C29.2057 54.8452 29.4152 54.804 29.5298 54.7217C29.6444 54.6393 29.7016 54.5355 29.7016 54.4102C29.7016 54.2884 29.6354 54.1774 29.5029 54.0771C29.374 53.9733 29.0965 53.882 28.6704 53.8032C27.9901 53.6707 27.4888 53.4451 27.1665 53.1265C26.8442 52.8042 26.6831 52.4032 26.6831 51.9233C26.6831 51.5975 26.7583 51.2967 26.9087 51.021C27.0591 50.7453 27.3043 50.5233 27.6445 50.355C27.9883 50.1831 28.4466 50.0972 29.0195 50.0972C29.4564 50.0972 29.8717 50.1348 30.2656 50.21C30.6631 50.2852 30.9889 50.38 31.2431 50.4946L31.2378 52.2456H29.9702L29.8091 51.4937C29.7267 51.4364 29.6336 51.3934 29.5298 51.3647C29.4259 51.3361 29.3096 51.3218 29.1806 51.3218C28.9407 51.3218 28.7653 51.3647 28.6543 51.4507C28.5433 51.5366 28.4878 51.6476 28.4878 51.7837C28.4878 51.8625 28.5111 51.9412 28.5576 52.02C28.6077 52.0988 28.7044 52.174 28.8476 52.2456C28.9909 52.3172 29.2003 52.3835 29.4761 52.4443C30.1385 52.5911 30.6362 52.7952 30.9692 53.0566C31.3058 53.318 31.4741 53.7155 31.4741 54.249C31.4741 54.8219 31.2682 55.2767 30.8564 55.6133C30.4482 55.9463 29.8538 56.1128 29.0732 56.1128ZM36.5341 56.1128C36.0794 56.1128 35.6873 55.9928 35.3578 55.7529C35.032 55.513 34.7813 55.1764 34.6059 54.7432C34.434 54.3063 34.3481 53.7979 34.3481 53.2178V53.105C34.3481 52.4998 34.4358 51.9717 34.6113 51.5205C34.7867 51.0658 35.0356 50.7131 35.3578 50.4624C35.6837 50.2082 36.0686 50.0811 36.5126 50.0811C36.8206 50.0811 37.0855 50.1455 37.3075 50.2744C37.5331 50.3997 37.7301 50.577 37.8984 50.8062V48.8994L37.082 48.7275V47.6211H37.8984H39.7836V54.7271L40.4604 54.8989V56H38.1508L38.0112 55.2803C37.8357 55.5524 37.628 55.7601 37.3881 55.9033C37.1482 56.043 36.8635 56.1128 36.5341 56.1128ZM37.1196 54.668C37.2771 54.668 37.4239 54.6375 37.56 54.5767C37.6961 54.5158 37.8088 54.4245 37.8984 54.3027V51.9771C37.8088 51.8302 37.6978 51.7192 37.5654 51.644C37.4364 51.5653 37.2914 51.5259 37.1303 51.5259C36.9155 51.5259 36.7418 51.5921 36.6093 51.7246C36.4768 51.8571 36.3801 52.0415 36.3193 52.2778C36.262 52.5142 36.2333 52.7899 36.2333 53.105V53.2178C36.2333 53.6797 36.2978 54.0378 36.4267 54.292C36.5556 54.5426 36.7865 54.668 37.1196 54.668ZM42.5822 56.1128C42.02 56.1128 41.5617 55.9535 41.2072 55.6348C40.8527 55.3161 40.6754 54.8918 40.6754 54.3618C40.6754 54.0002 40.7721 53.6797 40.9655 53.4004C41.1624 53.1211 41.456 52.9027 41.8463 52.7451C42.2402 52.584 42.7326 52.5034 43.3234 52.5034H43.9303V52.1597C43.9303 51.9269 43.8641 51.73 43.7316 51.5688C43.5991 51.4041 43.3896 51.3218 43.1032 51.3218C42.9814 51.3218 42.8668 51.3379 42.7594 51.3701C42.6556 51.3988 42.5607 51.4417 42.4747 51.499L42.3458 52.2402H41.0192L40.9923 50.6235C41.3218 50.4767 41.6655 50.3496 42.0236 50.2422C42.3852 50.1348 42.7881 50.0811 43.2321 50.0811C44.0234 50.0811 44.6518 50.2637 45.1173 50.6289C45.5828 50.9906 45.8156 51.508 45.8156 52.1812V54.3242C45.8156 54.4066 45.8156 54.4871 45.8156 54.5659C45.8191 54.6447 45.8281 54.7199 45.8424 54.7915L46.4708 54.8989V56H44.2687C44.2221 55.9355 44.172 55.8496 44.1183 55.7422C44.0646 55.6348 44.027 55.5273 44.0055 55.4199C43.8301 55.6383 43.6331 55.8084 43.4147 55.9302C43.1963 56.0519 42.9188 56.1128 42.5822 56.1128ZM43.1622 54.7808C43.2983 54.7808 43.4344 54.7539 43.5704 54.7002C43.7101 54.6429 43.8301 54.5588 43.9303 54.4478V53.6099H43.3449C43.0906 53.6099 42.8937 53.6654 42.754 53.7764C42.618 53.8874 42.5499 54.0342 42.5499 54.2168C42.5499 54.3923 42.6072 54.5301 42.7218 54.6304C42.8364 54.7306 42.9832 54.7808 43.1622 54.7808ZM49.0172 56V54.8989L49.8282 54.7271V49.458L49.0172 49.2861V48.1797H55.2638V50.4355H53.8404L53.7974 49.6299H51.7135V51.2358H54.211V52.6807H51.7135V54.5444H53.8995L53.9425 53.7012H55.3497V56H49.0172ZM55.8226 56V54.8989L56.5101 54.7271V51.4668L55.6937 51.2949V50.1885H58.2771L58.3362 50.9619C58.526 50.6826 58.757 50.466 59.0291 50.312C59.3012 50.158 59.6163 50.0811 59.9744 50.0811C60.3361 50.0811 60.6458 50.1598 60.9036 50.3174C61.165 50.4714 61.3619 50.7077 61.4944 51.0264C61.6699 50.7256 61.8955 50.4928 62.1712 50.3281C62.4505 50.1634 62.7781 50.0811 63.1541 50.0811C63.7163 50.0811 64.1585 50.2708 64.4808 50.6504C64.803 51.0299 64.9642 51.6136 64.9642 52.4014V54.7271L65.6517 54.8989V56H62.5311V54.8989L63.0843 54.7271V52.4014C63.0843 52.0612 63.0306 51.8302 62.9231 51.7085C62.8193 51.5868 62.6671 51.5259 62.4666 51.5259C62.3019 51.5259 62.1533 51.5581 62.0208 51.6226C61.8883 51.6834 61.7719 51.7729 61.6717 51.8911V54.7271L62.1551 54.8989V56H59.3138V54.8989L59.7972 54.7271V52.4014C59.7972 52.0612 59.7452 51.8302 59.6414 51.7085C59.5376 51.5868 59.3818 51.5259 59.1741 51.5259C59.013 51.5259 58.8662 51.5581 58.7337 51.6226C58.6012 51.6834 58.4848 51.7747 58.3846 51.8965V54.7271L58.9378 54.8989V56H55.8226ZM65.8345 58.2344V57.1279L66.5542 56.9561V51.4668L65.7378 51.2949V50.1885H68.3213L68.3858 50.8438C68.5433 50.6003 68.7331 50.4123 68.9551 50.2798C69.1771 50.1473 69.4492 50.0811 69.7715 50.0811C70.2298 50.0811 70.6237 50.2082 70.9531 50.4624C71.2826 50.7131 71.535 51.0658 71.7105 51.5205C71.8895 51.9753 71.979 52.5034 71.979 53.105V53.2178C71.979 53.7979 71.8895 54.3063 71.7105 54.7432C71.535 55.1764 71.2808 55.513 70.9478 55.7529C70.6148 55.9928 70.2137 56.1128 69.7447 56.1128C69.4582 56.1128 69.2058 56.0591 68.9873 55.9517C68.7725 55.8442 68.5863 55.6867 68.4287 55.479V56.9561L69.084 57.1279V58.2344H65.8345ZM69.1861 54.6787C69.5262 54.6787 69.7626 54.5516 69.895 54.2974C70.0275 54.0396 70.0938 53.6797 70.0938 53.2178V53.105C70.0938 52.7863 70.0633 52.5088 70.0025 52.2725C69.9416 52.0361 69.8431 51.8535 69.7071 51.7246C69.5746 51.5921 69.3973 51.5259 69.1753 51.5259C69.0142 51.5259 68.8674 51.5617 68.7349 51.6333C68.606 51.7049 68.5039 51.8123 68.4287 51.9556V54.3242C68.5039 54.4424 68.6078 54.5319 68.7403 54.5928C68.8727 54.6501 69.0213 54.6787 69.1861 54.6787ZM72.5862 56V54.8989L73.2629 54.7271V51.4668L72.4573 51.2949V50.1885H75.0408L75.0837 50.8975L75.0945 51.0425C75.2234 50.7131 75.3827 50.4714 75.5725 50.3174C75.7659 50.1598 76.0058 50.0811 76.2922 50.0811C76.371 50.0811 76.4641 50.0882 76.5715 50.1025C76.6789 50.1133 76.7882 50.1348 76.8992 50.167L76.7112 51.8965L75.9055 51.8589C75.7193 51.8517 75.5725 51.8732 75.4651 51.9233C75.3612 51.9699 75.2556 52.0487 75.1482 52.1597V54.7271L75.8249 54.8989V56H72.5862ZM79.7944 56.1128C79.2251 56.1128 78.7273 55.991 78.3012 55.7476C77.8787 55.5005 77.5493 55.1639 77.313 54.7378C77.0802 54.3117 76.9638 53.8301 76.9638 53.293V53.0942C76.9638 52.5034 77.0677 51.9806 77.2754 51.5259C77.483 51.0711 77.7874 50.7166 78.1884 50.4624C78.5895 50.2046 79.0818 50.0775 79.6655 50.0811C80.1919 50.0811 80.6359 50.1831 80.9975 50.3872C81.3628 50.5877 81.6403 50.8849 81.83 51.2788C82.0198 51.6691 82.1147 52.1507 82.1147 52.7236V53.6958H78.9189L78.9135 53.7334C78.9422 53.916 79.0031 54.0789 79.0962 54.2222C79.1928 54.3618 79.3253 54.4728 79.4936 54.5552C79.6619 54.6375 79.8696 54.6787 80.1167 54.6787C80.3602 54.6787 80.5983 54.6519 80.831 54.5981C81.0673 54.5409 81.3162 54.4513 81.5776 54.3296L82.0073 55.4683C81.7459 55.6545 81.4272 55.8084 81.0512 55.9302C80.6753 56.0519 80.2563 56.1128 79.7944 56.1128ZM78.9189 52.5303H80.396V52.3906C80.396 52.1829 80.3745 52.0093 80.3315 51.8696C80.2921 51.73 80.2223 51.6243 80.122 51.5527C80.0218 51.4811 79.8839 51.4453 79.7085 51.4453C79.5187 51.4453 79.3665 51.4919 79.2519 51.585C79.1409 51.6745 79.0586 51.7998 79.0048 51.9609C78.9547 52.1185 78.9189 52.2993 78.8974 52.5034L78.9189 52.5303ZM85.1281 56.1128C84.6698 56.1128 84.2419 56.0716 83.8444 55.9893C83.4505 55.9033 83.0943 55.7869 82.7756 55.6401L82.7541 53.8301H84.027L84.2419 54.6733C84.3171 54.7199 84.4137 54.7611 84.5319 54.7969C84.6501 54.8291 84.7915 54.8452 84.9562 54.8452C85.2606 54.8452 85.4701 54.804 85.5846 54.7217C85.6992 54.6393 85.7565 54.5355 85.7565 54.4102C85.7565 54.2884 85.6903 54.1774 85.5578 54.0771C85.4289 53.9733 85.1514 53.882 84.7253 53.8032C84.0449 53.6707 83.5436 53.4451 83.2214 53.1265C82.8991 52.8042 82.738 52.4032 82.738 51.9233C82.738 51.5975 82.8132 51.2967 82.9636 51.021C83.1139 50.7453 83.3592 50.5233 83.6994 50.355C84.0431 50.1831 84.5015 50.0972 85.0744 50.0972C85.5112 50.0972 85.9266 50.1348 86.3205 50.21C86.7179 50.2852 87.0438 50.38 87.298 50.4946L87.2927 52.2456H86.0251L85.8639 51.4937C85.7816 51.4364 85.6885 51.3934 85.5846 51.3647C85.4808 51.3361 85.3644 51.3218 85.2355 51.3218C84.9956 51.3218 84.8202 51.3647 84.7092 51.4507C84.5982 51.5366 84.5427 51.6476 84.5427 51.7837C84.5427 51.8625 84.5659 51.9412 84.6125 52.02C84.6626 52.0988 84.7593 52.174 84.9025 52.2456C85.0457 52.3172 85.2552 52.3835 85.5309 52.4443C86.1934 52.5911 86.6911 52.7952 87.0241 53.0566C87.3607 53.318 87.529 53.7155 87.529 54.249C87.529 54.8219 87.3231 55.2767 86.9113 55.6133C86.5031 55.9463 85.9087 56.1128 85.1281 56.1128ZM89.914 56.1128C89.3518 56.1128 88.8935 55.9535 88.539 55.6348C88.1845 55.3161 88.0072 54.8918 88.0072 54.3618C88.0072 54.0002 88.1039 53.6797 88.2973 53.4004C88.4942 53.1211 88.7878 52.9027 89.1781 52.7451C89.572 52.584 90.0644 52.5034 90.6552 52.5034H91.2621V52.1597C91.2621 51.9269 91.1959 51.73 91.0634 51.5688C90.9309 51.4041 90.7214 51.3218 90.435 51.3218C90.3132 51.3218 90.1986 51.3379 90.0912 51.3701C89.9874 51.3988 89.8925 51.4417 89.8065 51.499L89.6776 52.2402H88.351L88.3241 50.6235C88.6535 50.4767 88.9973 50.3496 89.3554 50.2422C89.717 50.1348 90.1199 50.0811 90.5639 50.0811C91.3552 50.0811 91.9836 50.2637 92.4491 50.6289C92.9146 50.9906 93.1474 51.508 93.1474 52.1812V54.3242C93.1474 54.4066 93.1474 54.4871 93.1474 54.5659C93.1509 54.6447 93.1599 54.7199 93.1742 54.7915L93.8026 54.8989V56H91.6005C91.5539 55.9355 91.5038 55.8496 91.4501 55.7422C91.3964 55.6348 91.3588 55.5273 91.3373 55.4199C91.1618 55.6383 90.9649 55.8084 90.7465 55.9302C90.5281 56.0519 90.2506 56.1128 89.914 56.1128ZM90.494 54.7808C90.6301 54.7808 90.7662 54.7539 90.9022 54.7002C91.0419 54.6429 91.1618 54.5588 91.2621 54.4478V53.6099H90.6767C90.4224 53.6099 90.2255 53.6654 90.0858 53.7764C89.9498 53.8874 89.8817 54.0342 89.8817 54.2168C89.8817 54.3923 89.939 54.5301 90.0536 54.6304C90.1682 54.7306 90.315 54.7808 90.494 54.7808Z" fill="white"/>
<path opacity="0.6" d="M219.396 56.1128C218.652 56.1128 217.987 55.9624 217.404 55.6616C216.82 55.3608 216.362 54.9258 216.029 54.3564C215.696 53.7835 215.529 53.0889 215.529 52.2725V51.9126C215.529 51.1606 215.681 50.4964 215.986 49.9199C216.294 49.3398 216.731 48.8869 217.296 48.561C217.866 48.2316 218.541 48.0669 219.321 48.0669C219.866 48.0669 220.383 48.1403 220.874 48.2871C221.368 48.4303 221.826 48.6774 222.249 49.0283V51.0425H220.879L220.691 49.8877C220.569 49.8053 220.44 49.7337 220.304 49.6729C220.172 49.612 220.028 49.5654 219.874 49.5332C219.724 49.501 219.561 49.4849 219.386 49.4849C218.988 49.4849 218.641 49.5798 218.344 49.7695C218.047 49.9593 217.816 50.235 217.651 50.5967C217.49 50.9548 217.409 51.3898 217.409 51.9019V52.2725C217.409 52.7523 217.493 53.1748 217.662 53.54C217.83 53.9017 218.064 54.1846 218.365 54.3887C218.67 54.5928 219.02 54.6948 219.418 54.6948C219.629 54.6948 219.844 54.6733 220.062 54.6304C220.281 54.5838 220.492 54.5229 220.696 54.4478L220.884 53.3413H222.259V55.3125C221.948 55.5273 221.55 55.7153 221.067 55.8765C220.583 56.034 220.027 56.1128 219.396 56.1128ZM224.607 56.1128C224.044 56.1128 223.586 55.9535 223.232 55.6348C222.877 55.3161 222.7 54.8918 222.7 54.3618C222.7 54.0002 222.797 53.6797 222.99 53.4004C223.187 53.1211 223.481 52.9027 223.871 52.7451C224.265 52.584 224.757 52.5034 225.348 52.5034H225.955V52.1597C225.955 51.9269 225.889 51.73 225.756 51.5688C225.624 51.4041 225.414 51.3218 225.128 51.3218C225.006 51.3218 224.891 51.3379 224.784 51.3701C224.68 51.3988 224.585 51.4417 224.499 51.499L224.37 52.2402H223.044L223.017 50.6235C223.346 50.4767 223.69 50.3496 224.048 50.2422C224.41 50.1348 224.813 50.0811 225.257 50.0811C226.048 50.0811 226.676 50.2637 227.142 50.6289C227.607 50.9906 227.84 51.508 227.84 52.1812V54.3242C227.84 54.4066 227.84 54.4871 227.84 54.5659C227.844 54.6447 227.853 54.7199 227.867 54.7915L228.495 54.8989V56H226.293C226.247 55.9355 226.196 55.8496 226.143 55.7422C226.089 55.6348 226.051 55.5273 226.03 55.4199C225.855 55.6383 225.658 55.8084 225.439 55.9302C225.221 56.0519 224.943 56.1128 224.607 56.1128ZM225.187 54.7808C225.323 54.7808 225.459 54.7539 225.595 54.7002C225.735 54.6429 225.855 54.5588 225.955 54.4478V53.6099H225.369C225.115 53.6099 224.918 53.6654 224.779 53.7764C224.642 53.8874 224.574 54.0342 224.574 54.2168C224.574 54.3923 224.632 54.5301 224.746 54.6304C224.861 54.7306 225.008 54.7808 225.187 54.7808ZM230.88 56.1128C230.426 56.1128 230.033 55.9928 229.704 55.7529C229.378 55.513 229.128 55.1764 228.952 54.7432C228.78 54.3063 228.694 53.7979 228.694 53.2178V53.105C228.694 52.4998 228.782 51.9717 228.957 51.5205C229.133 51.0658 229.382 50.7131 229.704 50.4624C230.03 50.2082 230.415 50.0811 230.859 50.0811C231.167 50.0811 231.432 50.1455 231.654 50.2744C231.879 50.3997 232.076 50.577 232.245 50.8062V48.8994L231.428 48.7275V47.6211H232.245H234.13V54.7271L234.807 54.8989V56H232.497L232.357 55.2803C232.182 55.5524 231.974 55.7601 231.734 55.9033C231.494 56.043 231.21 56.1128 230.88 56.1128ZM231.466 54.668C231.623 54.668 231.77 54.6375 231.906 54.5767C232.042 54.5158 232.155 54.4245 232.245 54.3027V51.9771C232.155 51.8302 232.044 51.7192 231.912 51.644C231.783 51.5653 231.638 51.5259 231.476 51.5259C231.262 51.5259 231.088 51.5921 230.955 51.7246C230.823 51.8571 230.726 52.0415 230.665 52.2778C230.608 52.5142 230.58 52.7899 230.58 53.105V53.2178C230.58 53.6797 230.644 54.0378 230.773 54.292C230.902 54.5426 231.133 54.668 231.466 54.668ZM236.928 56.1128C236.366 56.1128 235.908 55.9535 235.553 55.6348C235.199 55.3161 235.022 54.8918 235.022 54.3618C235.022 54.0002 235.118 53.6797 235.312 53.4004C235.509 53.1211 235.802 52.9027 236.193 52.7451C236.586 52.584 237.079 52.5034 237.67 52.5034H238.277V52.1597C238.277 51.9269 238.21 51.73 238.078 51.5688C237.945 51.4041 237.736 51.3218 237.449 51.3218C237.328 51.3218 237.213 51.3379 237.106 51.3701C237.002 51.3988 236.907 51.4417 236.821 51.499L236.692 52.2402H235.365L235.339 50.6235C235.668 50.4767 236.012 50.3496 236.37 50.2422C236.731 50.1348 237.134 50.0811 237.578 50.0811C238.37 50.0811 238.998 50.2637 239.464 50.6289C239.929 50.9906 240.162 51.508 240.162 52.1812V54.3242C240.162 54.4066 240.162 54.4871 240.162 54.5659C240.165 54.6447 240.174 54.7199 240.189 54.7915L240.817 54.8989V56H238.615C238.568 55.9355 238.518 55.8496 238.464 55.7422C238.411 55.6348 238.373 55.5273 238.352 55.4199C238.176 55.6383 237.979 55.8084 237.761 55.9302C237.542 56.0519 237.265 56.1128 236.928 56.1128ZM237.508 54.7808C237.645 54.7808 237.781 54.7539 237.917 54.7002C238.056 54.6429 238.176 54.5588 238.277 54.4478V53.6099H237.691C237.437 53.6099 237.24 53.6654 237.1 53.7764C236.964 53.8874 236.896 54.0342 236.896 54.2168C236.896 54.3923 236.953 54.5301 237.068 54.6304C237.183 54.7306 237.329 54.7808 237.508 54.7808ZM243.573 56.1128C243.114 56.1128 242.686 56.0716 242.289 55.9893C241.895 55.9033 241.539 55.7869 241.22 55.6401L241.199 53.8301H242.472L242.686 54.6733C242.762 54.7199 242.858 54.7611 242.976 54.7969C243.095 54.8291 243.236 54.8452 243.401 54.8452C243.705 54.8452 243.915 54.804 244.029 54.7217C244.144 54.6393 244.201 54.5355 244.201 54.4102C244.201 54.2884 244.135 54.1774 244.002 54.0771C243.873 53.9733 243.596 53.882 243.17 53.8032C242.489 53.6707 241.988 53.4451 241.666 53.1265C241.344 52.8042 241.182 52.4032 241.182 51.9233C241.182 51.5975 241.258 51.2967 241.408 51.021C241.558 50.7453 241.804 50.5233 242.144 50.355C242.488 50.1831 242.946 50.0972 243.519 50.0972C243.956 50.0972 244.371 50.1348 244.765 50.21C245.162 50.2852 245.488 50.38 245.743 50.4946L245.737 52.2456H244.47L244.308 51.4937C244.226 51.4364 244.133 51.3934 244.029 51.3647C243.925 51.3361 243.809 51.3218 243.68 51.3218C243.44 51.3218 243.265 51.3647 243.154 51.4507C243.043 51.5366 242.987 51.6476 242.987 51.7837C242.987 51.8625 243.01 51.9412 243.057 52.02C243.107 52.0988 243.204 52.174 243.347 52.2456C243.49 52.3172 243.7 52.3835 243.975 52.4443C244.638 52.5911 245.136 52.7952 245.469 53.0566C245.805 53.318 245.973 53.7155 245.973 54.249C245.973 54.8219 245.768 55.2767 245.356 55.6133C244.948 55.9463 244.353 56.1128 243.573 56.1128ZM248.799 56.1235C248.19 56.1235 247.726 55.9624 247.408 55.6401C247.093 55.3143 246.935 54.8005 246.935 54.0986V51.4883H246.21V50.1885H246.935V48.7544H248.81V50.1885H249.76V51.4883H248.81V54.0933C248.81 54.283 248.853 54.4155 248.939 54.4907C249.024 54.5659 249.143 54.6035 249.293 54.6035C249.358 54.6035 249.422 54.5999 249.486 54.5928C249.551 54.5856 249.615 54.5767 249.68 54.5659L249.809 55.9731C249.644 56.0197 249.477 56.0555 249.309 56.0806C249.144 56.1092 248.974 56.1235 248.799 56.1235ZM250.314 56V54.8989L250.991 54.7271V51.4668L250.185 51.2949V50.1885H252.768L252.811 50.8975L252.822 51.0425C252.951 50.7131 253.11 50.4714 253.3 50.3174C253.493 50.1598 253.733 50.0811 254.02 50.0811C254.099 50.0811 254.192 50.0882 254.299 50.1025C254.407 50.1133 254.516 50.1348 254.627 50.167L254.439 51.8965L253.633 51.8589C253.447 51.8517 253.3 51.8732 253.193 51.9233C253.089 51.9699 252.983 52.0487 252.876 52.1597V54.7271L253.553 54.8989V56H250.314ZM257.517 56.1128C256.919 56.1128 256.407 55.9893 255.98 55.7422C255.558 55.4915 255.234 55.1442 255.008 54.7002C254.786 54.2526 254.675 53.7352 254.675 53.1479V53.0405C254.675 52.4604 254.786 51.9484 255.008 51.5044C255.234 51.0604 255.558 50.7131 255.98 50.4624C256.403 50.2082 256.911 50.0811 257.506 50.0811C258.104 50.0811 258.612 50.2064 259.031 50.457C259.454 50.7077 259.776 51.055 259.998 51.499C260.224 51.943 260.336 52.4569 260.336 53.0405V53.1479C260.336 53.7316 260.224 54.2472 259.998 54.6948C259.776 55.1388 259.454 55.4862 259.031 55.7368C258.612 55.9875 258.107 56.1128 257.517 56.1128ZM257.517 54.6787C257.746 54.6787 257.928 54.6178 258.064 54.4961C258.204 54.3708 258.304 54.1935 258.365 53.9644C258.43 53.7352 258.462 53.4631 258.462 53.1479V53.0405C258.462 52.7362 258.43 52.4712 258.365 52.2456C258.304 52.0164 258.204 51.8392 258.064 51.7139C257.925 51.585 257.739 51.5205 257.506 51.5205C257.277 51.5205 257.092 51.585 256.953 51.7139C256.813 51.8392 256.713 52.0164 256.652 52.2456C256.591 52.4712 256.561 52.7362 256.561 53.0405V53.1479C256.561 53.4666 256.591 53.7406 256.652 53.9697C256.713 54.1989 256.813 54.3743 256.953 54.4961C257.092 54.6178 257.28 54.6787 257.517 54.6787Z" fill="white"/>
</svg>
