<svg width="251" height="56" viewBox="0 0 251 56" fill="none" xmlns="http://www.w3.org/2000/svg">
<ellipse cx="218" cy="19" rx="20" ry="19" fill="#F3C42E"/>
<rect x="36" y="12" width="182" height="18" fill="#F3C42E"/>
<ellipse cx="29" cy="19" rx="20" ry="19" fill="#F3C42E"/>
<path opacity="0.6" d="M24.6836 27V24.998L27.2129 24.6855V15.7012L24.6641 15.6719V13.7773L30.6309 12.7812V24.6855L33.1602 24.998V27H24.6836Z" fill="white"/>
<path d="M213.068 27V24.8027L217.648 19.9785C218.059 19.5098 218.384 19.0964 218.625 18.7383C218.866 18.3802 219.038 18.0514 219.143 17.752C219.253 17.4525 219.309 17.1628 219.309 16.8828C219.309 16.4206 219.185 16.0299 218.938 15.7109C218.69 15.3854 218.319 15.2227 217.824 15.2227C217.284 15.2227 216.883 15.4147 216.623 15.7988C216.363 16.1764 216.232 16.6875 216.232 17.332H212.883L212.863 17.2734C212.844 16.3945 213.033 15.6003 213.43 14.8906C213.833 14.181 214.413 13.6178 215.168 13.2012C215.923 12.7845 216.812 12.5762 217.834 12.5762C218.856 12.5762 219.732 12.7552 220.461 13.1133C221.197 13.4648 221.76 13.9629 222.15 14.6074C222.548 15.2454 222.746 15.9941 222.746 16.8535C222.746 17.4395 222.645 17.9798 222.443 18.4746C222.248 18.9629 221.923 19.487 221.467 20.0469C221.018 20.6068 220.415 21.2839 219.66 22.0781L217.512 24.3535L217.531 24.4023H220.354L220.5 23.2207H223.068V27H213.068Z" fill="white"/>
<path opacity="0.6" d="M4.09059 53.1128C3.45322 53.1128 2.88746 53.0519 2.39332 52.9302C1.89918 52.8084 1.40683 52.5793 0.916269 52.2427V50.2124H2.37184L2.53297 51.2544C2.64755 51.3833 2.84986 51.4925 3.1399 51.582C3.42994 51.668 3.74684 51.7109 4.09059 51.7109C4.33049 51.7109 4.53102 51.6823 4.69215 51.625C4.85328 51.5641 4.97503 51.4764 5.05738 51.3618C5.13974 51.2472 5.18092 51.1094 5.18092 50.9482C5.18092 50.7943 5.14153 50.6564 5.06275 50.5347C4.98756 50.4129 4.86223 50.2983 4.68678 50.1909C4.51132 50.0799 4.27499 49.9671 3.97779 49.8525C3.3082 49.6377 2.75855 49.4193 2.32887 49.1973C1.89918 48.9753 1.5787 48.7121 1.36744 48.4077C1.15976 48.1034 1.05592 47.7256 1.05592 47.2744C1.05592 46.8411 1.17945 46.4634 1.42652 46.1411C1.67359 45.8153 2.01376 45.5592 2.44703 45.373C2.8803 45.1868 3.37623 45.0884 3.93482 45.0776C4.57219 45.0633 5.13616 45.1278 5.62672 45.271C6.11728 45.4106 6.55055 45.6237 6.92652 45.9102V47.7954H5.53004L5.30982 46.748C5.18808 46.6872 5.01441 46.6317 4.78883 46.5815C4.56324 46.5314 4.32333 46.5063 4.0691 46.5063C3.85068 46.5063 3.65553 46.535 3.48365 46.5923C3.31536 46.6496 3.18108 46.7355 3.08082 46.8501C2.98414 46.9647 2.9358 47.1079 2.9358 47.2798C2.9358 47.4194 2.97698 47.5448 3.05934 47.6558C3.14169 47.7632 3.28671 47.8724 3.49439 47.9834C3.70208 48.0908 3.99212 48.2161 4.36451 48.3594C5.25253 48.6208 5.92571 48.9484 6.38404 49.3423C6.84596 49.7326 7.07691 50.2643 7.07691 50.9375C7.07691 51.3994 6.95159 51.7933 6.70094 52.1191C6.45029 52.4414 6.10117 52.6885 5.65357 52.8604C5.20598 53.0286 4.68499 53.1128 4.09059 53.1128ZM10.2353 53.1128C9.666 53.1128 9.16827 52.991 8.74217 52.7476C8.31964 52.5005 7.99021 52.1639 7.75389 51.7378C7.52114 51.3117 7.40477 50.8301 7.40477 50.293V50.0942C7.40477 49.5034 7.50861 48.9806 7.71629 48.5259C7.92397 48.0711 8.22833 47.7166 8.62937 47.4624C9.03042 47.2046 9.52277 47.0775 10.1064 47.0811C10.6328 47.0811 11.0768 47.1831 11.4385 47.3872C11.8037 47.5877 12.0812 47.8849 12.271 48.2788C12.4608 48.6691 12.5556 49.1507 12.5556 49.7236V50.6958H9.35984L9.35447 50.7334C9.38312 50.916 9.44399 51.0789 9.53709 51.2222C9.63377 51.3618 9.76626 51.4728 9.93455 51.5552C10.1028 51.6375 10.3105 51.6787 10.5576 51.6787C10.8011 51.6787 11.0392 51.6519 11.272 51.5981C11.5083 51.5409 11.7571 51.4513 12.0185 51.3296L12.4482 52.4683C12.1868 52.6545 11.8681 52.8084 11.4922 52.9302C11.1162 53.0519 10.6972 53.1128 10.2353 53.1128ZM9.35984 49.5303H10.8369V49.3906C10.8369 49.1829 10.8154 49.0093 10.7724 48.8696C10.7331 48.73 10.6632 48.6243 10.563 48.5527C10.4627 48.4811 10.3249 48.4453 10.1494 48.4453C9.95962 48.4453 9.80743 48.4919 9.69285 48.585C9.58185 48.6745 9.49949 48.7998 9.44578 48.9609C9.39565 49.1185 9.35984 49.2993 9.33836 49.5034L9.35984 49.5303ZM15.4079 53.1128C14.8063 53.1128 14.3337 52.923 13.9899 52.5435C13.6462 52.1639 13.4743 51.5767 13.4743 50.7817V48.4668L12.8513 48.2949V47.1885H13.4743H15.3596V50.7925C15.3596 51.0789 15.4187 51.2974 15.5368 51.4478C15.6586 51.5946 15.8394 51.668 16.0793 51.668C16.2189 51.668 16.3568 51.6429 16.4929 51.5928C16.6325 51.5391 16.7561 51.4603 16.8635 51.3564V48.4668L16.2297 48.2949V47.1885H16.8635H18.7487V51.7271L19.4738 51.8989V53H17.1105L16.987 52.3394C16.8008 52.59 16.5734 52.7816 16.3049 52.9141C16.0399 53.0465 15.7409 53.1128 15.4079 53.1128ZM22.31 53.1128C21.8516 53.1128 21.4237 53.0716 21.0263 52.9893C20.6324 52.9033 20.2761 52.7869 19.9574 52.6401L19.936 50.8301H21.2089L21.4237 51.6733C21.4989 51.7199 21.5956 51.7611 21.7138 51.7969C21.832 51.8291 21.9734 51.8452 22.1381 51.8452C22.4425 51.8452 22.6519 51.804 22.7665 51.7217C22.8811 51.6393 22.9384 51.5355 22.9384 51.4102C22.9384 51.2884 22.8722 51.1774 22.7397 51.0771C22.6108 50.9733 22.3333 50.882 21.9071 50.8032C21.2268 50.6707 20.7255 50.4451 20.4032 50.1265C20.081 49.8042 19.9198 49.4032 19.9198 48.9233C19.9198 48.5975 19.995 48.2967 20.1454 48.021C20.2958 47.7453 20.5411 47.5233 20.8813 47.355C21.225 47.1831 21.6834 47.0972 22.2563 47.0972C22.6931 47.0972 23.1085 47.1348 23.5024 47.21C23.8998 47.2852 24.2257 47.38 24.4799 47.4946L24.4745 49.2456H23.207L23.0458 48.4937C22.9635 48.4364 22.8704 48.3934 22.7665 48.3647C22.6627 48.3361 22.5463 48.3218 22.4174 48.3218C22.1775 48.3218 22.002 48.3647 21.891 48.4507C21.78 48.5366 21.7245 48.6476 21.7245 48.7837C21.7245 48.8625 21.7478 48.9412 21.7944 49.02C21.8445 49.0988 21.9412 49.174 22.0844 49.2456C22.2276 49.3172 22.4371 49.3835 22.7128 49.4443C23.3752 49.5911 23.873 49.7952 24.206 50.0566C24.5426 50.318 24.7109 50.7155 24.7109 51.249C24.7109 51.8219 24.505 52.2767 24.0932 52.6133C23.685 52.9463 23.0906 53.1128 22.31 53.1128ZM29.7709 53.1128C29.3161 53.1128 28.924 52.9928 28.5946 52.7529C28.2687 52.513 28.0181 52.1764 27.8426 51.7432C27.6708 51.3063 27.5848 50.7979 27.5848 50.2178V50.105C27.5848 49.4998 27.6726 48.9717 27.848 48.5205C28.0235 48.0658 28.2723 47.7131 28.5946 47.4624C28.9204 47.2082 29.3054 47.0811 29.7494 47.0811C30.0573 47.0811 30.3223 47.1455 30.5443 47.2744C30.7699 47.3997 30.9668 47.577 31.1351 47.8062V45.8994L30.3187 45.7275V44.6211H31.1351H33.0204V51.7271L33.6971 51.8989V53H31.3876L31.2479 52.2803C31.0725 52.5524 30.8648 52.7601 30.6249 52.9033C30.385 53.043 30.1003 53.1128 29.7709 53.1128ZM30.3563 51.668C30.5139 51.668 30.6607 51.6375 30.7967 51.5767C30.9328 51.5158 31.0456 51.4245 31.1351 51.3027V48.9771C31.0456 48.8302 30.9346 48.7192 30.8021 48.644C30.6732 48.5653 30.5282 48.5259 30.3671 48.5259C30.1522 48.5259 29.9785 48.5921 29.8461 48.7246C29.7136 48.8571 29.6169 49.0415 29.556 49.2778C29.4987 49.5142 29.4701 49.7899 29.4701 50.105V50.2178C29.4701 50.6797 29.5345 51.0378 29.6634 51.292C29.7923 51.5426 30.0233 51.668 30.3563 51.668ZM35.8189 53.1128C35.2567 53.1128 34.7984 52.9535 34.4439 52.6348C34.0894 52.3161 33.9122 51.8918 33.9122 51.3618C33.9122 51.0002 34.0089 50.6797 34.2022 50.4004C34.3992 50.1211 34.6928 49.9027 35.0831 49.7451C35.477 49.584 35.9693 49.5034 36.5601 49.5034H37.1671V49.1597C37.1671 48.9269 37.1008 48.73 36.9683 48.5688C36.8359 48.4041 36.6264 48.3218 36.3399 48.3218C36.2182 48.3218 36.1036 48.3379 35.9962 48.3701C35.8923 48.3988 35.7974 48.4417 35.7115 48.499L35.5826 49.2402H34.2559L34.2291 47.6235C34.5585 47.4767 34.9023 47.3496 35.2603 47.2422C35.622 47.1348 36.0248 47.0811 36.4688 47.0811C37.2602 47.0811 37.8886 47.2637 38.3541 47.6289C38.8196 47.9906 39.0523 48.508 39.0523 49.1812V51.3242C39.0523 51.4066 39.0523 51.4871 39.0523 51.5659C39.0559 51.6447 39.0649 51.7199 39.0792 51.7915L39.7076 51.8989V53H37.5054C37.4589 52.9355 37.4088 52.8496 37.3551 52.7422C37.3013 52.6348 37.2637 52.5273 37.2423 52.4199C37.0668 52.6383 36.8699 52.8084 36.6514 52.9302C36.433 53.0519 36.1555 53.1128 35.8189 53.1128ZM36.399 51.7808C36.5351 51.7808 36.6711 51.7539 36.8072 51.7002C36.9469 51.6429 37.0668 51.5588 37.1671 51.4478V50.6099H36.5816C36.3274 50.6099 36.1304 50.6654 35.9908 50.7764C35.8547 50.8874 35.7867 51.0342 35.7867 51.2168C35.7867 51.3923 35.844 51.5301 35.9586 51.6304C36.0732 51.7306 36.22 51.7808 36.399 51.7808ZM42.0926 53.1128C41.6378 53.1128 41.2457 52.9928 40.9163 52.7529C40.5905 52.513 40.3398 52.1764 40.1644 51.7432C39.9925 51.3063 39.9065 50.7979 39.9065 50.2178V50.105C39.9065 49.4998 39.9943 48.9717 40.1697 48.5205C40.3452 48.0658 40.594 47.7131 40.9163 47.4624C41.2422 47.2082 41.6271 47.0811 42.0711 47.0811C42.379 47.0811 42.644 47.1455 42.866 47.2744C43.0916 47.3997 43.2885 47.577 43.4568 47.8062V45.8994L42.6404 45.7275V44.6211H43.4568H45.3421V51.7271L46.0188 51.8989V53H43.7093L43.5696 52.2803C43.3942 52.5524 43.1865 52.7601 42.9466 52.9033C42.7067 53.043 42.422 53.1128 42.0926 53.1128ZM42.678 51.668C42.8356 51.668 42.9824 51.6375 43.1185 51.5767C43.2545 51.5158 43.3673 51.4245 43.4568 51.3027V48.9771C43.3673 48.8302 43.2563 48.7192 43.1238 48.644C42.9949 48.5653 42.8499 48.5259 42.6888 48.5259C42.4739 48.5259 42.3003 48.5921 42.1678 48.7246C42.0353 48.8571 41.9386 49.0415 41.8777 49.2778C41.8204 49.5142 41.7918 49.7899 41.7918 50.105V50.2178C41.7918 50.6797 41.8562 51.0378 41.9852 51.292C42.1141 51.5426 42.345 51.668 42.678 51.668ZM49.0269 53.1128C48.4289 53.1128 47.9169 52.9893 47.4907 52.7422C47.0682 52.4915 46.7442 52.1442 46.5186 51.7002C46.2966 51.2526 46.1856 50.7352 46.1856 50.1479V50.0405C46.1856 49.4604 46.2966 48.9484 46.5186 48.5044C46.7442 48.0604 47.0682 47.7131 47.4907 47.4624C47.9133 47.2082 48.4217 47.0811 49.0161 47.0811C49.6141 47.0811 50.1226 47.2064 50.5415 47.457C50.9641 47.7077 51.2863 48.055 51.5083 48.499C51.7339 48.943 51.8467 49.4569 51.8467 50.0405V50.1479C51.8467 50.7316 51.7339 51.2472 51.5083 51.6948C51.2863 52.1388 50.9641 52.4862 50.5415 52.7368C50.1226 52.9875 49.6177 53.1128 49.0269 53.1128ZM49.0269 51.6787C49.256 51.6787 49.4387 51.6178 49.5747 51.4961C49.7144 51.3708 49.8146 51.1935 49.8755 50.9644C49.94 50.7352 49.9722 50.4631 49.9722 50.1479V50.0405C49.9722 49.7362 49.94 49.4712 49.8755 49.2456C49.8146 49.0164 49.7144 48.8392 49.5747 48.7139C49.4351 48.585 49.2489 48.5205 49.0161 48.5205C48.787 48.5205 48.6026 48.585 48.4629 48.7139C48.3233 48.8392 48.223 49.0164 48.1621 49.2456C48.1013 49.4712 48.0708 49.7362 48.0708 50.0405V50.1479C48.0708 50.4666 48.1013 50.7406 48.1621 50.9697C48.223 51.1989 48.3233 51.3743 48.4629 51.4961C48.6026 51.6178 48.7906 51.6787 49.0269 51.6787ZM54.8279 53.1128C54.3695 53.1128 53.9416 53.0716 53.5442 52.9893C53.1503 52.9033 52.794 52.7869 52.4753 52.6401L52.4538 50.8301H53.7268L53.9416 51.6733C54.0168 51.7199 54.1135 51.7611 54.2317 51.7969C54.3498 51.8291 54.4913 51.8452 54.656 51.8452C54.9604 51.8452 55.1698 51.804 55.2844 51.7217C55.399 51.6393 55.4563 51.5355 55.4563 51.4102C55.4563 51.2884 55.39 51.1774 55.2576 51.0771C55.1287 50.9733 54.8511 50.882 54.425 50.8032C53.7447 50.6707 53.2434 50.4451 52.9211 50.1265C52.5989 49.8042 52.4377 49.4032 52.4377 48.9233C52.4377 48.5975 52.5129 48.2967 52.6633 48.021C52.8137 47.7453 53.059 47.5233 53.3992 47.355C53.7429 47.1831 54.2012 47.0972 54.7742 47.0972C55.211 47.0972 55.6264 47.1348 56.0203 47.21C56.4177 47.2852 56.7436 47.38 56.9978 47.4946L56.9924 49.2456H55.7248L55.5637 48.4937C55.4814 48.4364 55.3883 48.3934 55.2844 48.3647C55.1806 48.3361 55.0642 48.3218 54.9353 48.3218C54.6954 48.3218 54.5199 48.3647 54.4089 48.4507C54.2979 48.5366 54.2424 48.6476 54.2424 48.7837C54.2424 48.8625 54.2657 48.9412 54.3122 49.02C54.3624 49.0988 54.4591 49.174 54.6023 49.2456C54.7455 49.3172 54.955 49.3835 55.2307 49.4443C55.8931 49.5911 56.3909 49.7952 56.7239 50.0566C57.0605 50.318 57.2288 50.7155 57.2288 51.249C57.2288 51.8219 57.0229 52.2767 56.6111 52.6133C56.2029 52.9463 55.6085 53.1128 54.8279 53.1128Z" fill="white"/>
<path d="M188.345 53.1128C187.6 53.1128 186.936 52.9624 186.352 52.6616C185.768 52.3608 185.31 51.9258 184.977 51.3564C184.644 50.7835 184.477 50.0889 184.477 49.2725V48.9126C184.477 48.1606 184.63 47.4964 184.934 46.9199C185.242 46.3398 185.679 45.8869 186.245 45.561C186.814 45.2316 187.489 45.0669 188.269 45.0669C188.814 45.0669 189.331 45.1403 189.822 45.2871C190.316 45.4303 190.774 45.6774 191.197 46.0283V48.0425H189.827L189.639 46.8877C189.517 46.8053 189.388 46.7337 189.252 46.6729C189.12 46.612 188.977 46.5654 188.823 46.5332C188.672 46.501 188.509 46.4849 188.334 46.4849C187.936 46.4849 187.589 46.5798 187.292 46.7695C186.995 46.9593 186.764 47.235 186.599 47.5967C186.438 47.9548 186.357 48.3898 186.357 48.9019V49.2725C186.357 49.7523 186.441 50.1748 186.61 50.54C186.778 50.9017 187.013 51.1846 187.313 51.3887C187.618 51.5928 187.969 51.6948 188.366 51.6948C188.577 51.6948 188.792 51.6733 189.011 51.6304C189.229 51.5838 189.44 51.5229 189.644 51.4478L189.832 50.3413H191.207V52.3125C190.896 52.5273 190.498 52.7153 190.015 52.8765C189.532 53.034 188.975 53.1128 188.345 53.1128ZM194.43 53.1128C193.832 53.1128 193.32 52.9893 192.894 52.7422C192.472 52.4915 192.148 52.1442 191.922 51.7002C191.7 51.2526 191.589 50.7352 191.589 50.1479V50.0405C191.589 49.4604 191.7 48.9484 191.922 48.5044C192.148 48.0604 192.472 47.7131 192.894 47.4624C193.317 47.2082 193.825 47.0811 194.42 47.0811C195.018 47.0811 195.526 47.2064 195.945 47.457C196.367 47.7077 196.69 48.055 196.912 48.499C197.137 48.943 197.25 49.4569 197.25 50.0405V50.1479C197.25 50.7316 197.137 51.2472 196.912 51.6948C196.69 52.1388 196.367 52.4862 195.945 52.7368C195.526 52.9875 195.021 53.1128 194.43 53.1128ZM194.43 51.6787C194.659 51.6787 194.842 51.6178 194.978 51.4961C195.118 51.3708 195.218 51.1935 195.279 50.9644C195.343 50.7352 195.376 50.4631 195.376 50.1479V50.0405C195.376 49.7362 195.343 49.4712 195.279 49.2456C195.218 49.0164 195.118 48.8392 194.978 48.7139C194.838 48.585 194.652 48.5205 194.42 48.5205C194.19 48.5205 194.006 48.585 193.866 48.7139C193.727 48.8392 193.626 49.0164 193.566 49.2456C193.505 49.4712 193.474 49.7362 193.474 50.0405V50.1479C193.474 50.4666 193.505 50.7406 193.566 50.9697C193.626 51.1989 193.727 51.3743 193.866 51.4961C194.006 51.6178 194.194 51.6787 194.43 51.6787ZM197.556 53V51.8989L198.244 51.7271V48.4668L197.428 48.2949V47.1885H200.011L200.07 47.9619C200.26 47.6826 200.491 47.466 200.763 47.312C201.035 47.158 201.35 47.0811 201.708 47.0811C202.07 47.0811 202.38 47.1598 202.638 47.3174C202.899 47.4714 203.096 47.7077 203.228 48.0264C203.404 47.7256 203.629 47.4928 203.905 47.3281C204.184 47.1634 204.512 47.0811 204.888 47.0811C205.45 47.0811 205.892 47.2708 206.215 47.6504C206.537 48.0299 206.698 48.6136 206.698 49.4014V51.7271L207.386 51.8989V53H204.265V51.8989L204.818 51.7271V49.4014C204.818 49.0612 204.764 48.8302 204.657 48.7085C204.553 48.5868 204.401 48.5259 204.201 48.5259C204.036 48.5259 203.887 48.5581 203.755 48.6226C203.622 48.6834 203.506 48.7729 203.406 48.8911V51.7271L203.889 51.8989V53H201.048V51.8989L201.531 51.7271V49.4014C201.531 49.0612 201.479 48.8302 201.375 48.7085C201.271 48.5868 201.116 48.5259 200.908 48.5259C200.747 48.5259 200.6 48.5581 200.468 48.6226C200.335 48.6834 200.219 48.7747 200.118 48.8965V51.7271L200.672 51.8989V53H197.556ZM207.568 55.2344V54.1279L208.288 53.9561V48.4668L207.472 48.2949V47.1885H210.055L210.12 47.8438C210.277 47.6003 210.467 47.4123 210.689 47.2798C210.911 47.1473 211.183 47.0811 211.505 47.0811C211.964 47.0811 212.358 47.2082 212.687 47.4624C213.016 47.7131 213.269 48.0658 213.444 48.5205C213.623 48.9753 213.713 49.5034 213.713 50.105V50.2178C213.713 50.7979 213.623 51.3063 213.444 51.7432C213.269 52.1764 213.015 52.513 212.682 52.7529C212.349 52.9928 211.948 53.1128 211.479 53.1128C211.192 53.1128 210.94 53.0591 210.721 52.9517C210.506 52.8442 210.32 52.6867 210.163 52.479V53.9561L210.818 54.1279V55.2344H207.568ZM210.92 51.6787C211.26 51.6787 211.496 51.5516 211.629 51.2974C211.761 51.0396 211.828 50.6797 211.828 50.2178V50.105C211.828 49.7863 211.797 49.5088 211.736 49.2725C211.676 49.0361 211.577 48.8535 211.441 48.7246C211.308 48.5921 211.131 48.5259 210.909 48.5259C210.748 48.5259 210.601 48.5617 210.469 48.6333C210.34 48.7049 210.238 48.8123 210.163 48.9556V51.3242C210.238 51.4424 210.342 51.5319 210.474 51.5928C210.607 51.6501 210.755 51.6787 210.92 51.6787ZM216.968 53.1128C216.399 53.1128 215.901 52.991 215.475 52.7476C215.052 52.5005 214.723 52.1639 214.487 51.7378C214.254 51.3117 214.137 50.8301 214.137 50.293V50.0942C214.137 49.5034 214.241 48.9806 214.449 48.5259C214.657 48.0711 214.961 47.7166 215.362 47.4624C215.763 47.2046 216.255 47.0775 216.839 47.0811C217.366 47.0811 217.81 47.1831 218.171 47.3872C218.536 47.5877 218.814 47.8849 219.004 48.2788C219.193 48.6691 219.288 49.1507 219.288 49.7236V50.6958H216.093L216.087 50.7334C216.116 50.916 216.177 51.0789 216.27 51.2222C216.366 51.3618 216.499 51.4728 216.667 51.5552C216.836 51.6375 217.043 51.6787 217.29 51.6787C217.534 51.6787 217.772 51.6519 218.005 51.5981C218.241 51.5409 218.49 51.4513 218.751 51.3296L219.181 52.4683C218.92 52.6545 218.601 52.8084 218.225 52.9302C217.849 53.0519 217.43 53.1128 216.968 53.1128ZM216.093 49.5303H217.57V49.3906C217.57 49.1829 217.548 49.0093 217.505 48.8696C217.466 48.73 217.396 48.6243 217.296 48.5527C217.195 48.4811 217.058 48.4453 216.882 48.4453C216.692 48.4453 216.54 48.4919 216.426 48.585C216.315 48.6745 216.232 48.7998 216.178 48.9609C216.128 49.1185 216.093 49.2993 216.071 49.5034L216.093 49.5303ZM222.162 53.1235C221.553 53.1235 221.09 52.9624 220.771 52.6401C220.456 52.3143 220.298 51.8005 220.298 51.0986V48.4883H219.573V47.1885H220.298V45.7544H222.173V47.1885H223.124V48.4883H222.173V51.0933C222.173 51.283 222.216 51.4155 222.302 51.4907C222.388 51.5659 222.506 51.6035 222.656 51.6035C222.721 51.6035 222.785 51.5999 222.85 51.5928C222.914 51.5856 222.979 51.5767 223.043 51.5659L223.172 52.9731C223.007 53.0197 222.841 53.0555 222.672 53.0806C222.508 53.1092 222.338 53.1235 222.162 53.1235ZM226.346 53.1128C225.777 53.1128 225.279 52.991 224.853 52.7476C224.431 52.5005 224.101 52.1639 223.865 51.7378C223.632 51.3117 223.516 50.8301 223.516 50.293V50.0942C223.516 49.5034 223.62 48.9806 223.827 48.5259C224.035 48.0711 224.339 47.7166 224.74 47.4624C225.141 47.2046 225.634 47.0775 226.217 47.0811C226.744 47.0811 227.188 47.1831 227.55 47.3872C227.915 47.5877 228.192 47.8849 228.382 48.2788C228.572 48.6691 228.667 49.1507 228.667 49.7236V50.6958H225.471L225.466 50.7334C225.494 50.916 225.555 51.0789 225.648 51.2222C225.745 51.3618 225.877 51.4728 226.046 51.5552C226.214 51.6375 226.422 51.6787 226.669 51.6787C226.912 51.6787 227.15 51.6519 227.383 51.5981C227.619 51.5409 227.868 51.4513 228.13 51.3296L228.559 52.4683C228.298 52.6545 227.979 52.8084 227.603 52.9302C227.227 53.0519 226.808 53.1128 226.346 53.1128ZM225.471 49.5303H226.948V49.3906C226.948 49.1829 226.926 49.0093 226.884 48.8696C226.844 48.73 226.774 48.6243 226.674 48.5527C226.574 48.4811 226.436 48.4453 226.26 48.4453C226.071 48.4453 225.919 48.4919 225.804 48.585C225.693 48.6745 225.611 48.7998 225.557 48.9609C225.507 49.1185 225.471 49.2993 225.449 49.5034L225.471 49.5303ZM224.048 46.0874V45.9478L225.444 44.6211H226.926L228.301 45.9692V46.0874H226.851L226.18 45.3247L225.471 46.0874H224.048ZM229.016 53V51.8989L229.693 51.7271V48.4668L228.887 48.2949V47.1885H231.476L231.54 47.9995C231.734 47.7095 231.97 47.4839 232.249 47.3228C232.532 47.1616 232.853 47.0811 233.211 47.0811C233.755 47.0811 234.185 47.2655 234.5 47.6343C234.815 48.0031 234.973 48.5885 234.973 49.3906V51.7271L235.649 51.8989V53H232.534V51.8989L233.082 51.7271V49.3853C233.082 49.0737 233.019 48.8535 232.894 48.7246C232.769 48.5921 232.59 48.5259 232.357 48.5259C232.181 48.5259 232.031 48.5581 231.906 48.6226C231.78 48.6834 231.671 48.7765 231.578 48.9019V51.7271L232.061 51.8989V53H229.016ZM238.523 53.1128C237.947 53.1128 237.451 52.9857 237.035 52.7314C236.62 52.4772 236.301 52.1281 236.079 51.6841C235.857 51.2401 235.746 50.7334 235.746 50.1641V50.0405C235.746 49.4569 235.861 48.943 236.09 48.499C236.323 48.055 236.645 47.7077 237.057 47.457C237.472 47.2064 237.956 47.0811 238.507 47.0811C239.062 47.0811 239.536 47.1652 239.93 47.3335C240.328 47.5018 240.641 47.6772 240.87 47.8599L240.838 49.6914H239.436L239.211 48.6387C239.15 48.5778 239.067 48.5277 238.964 48.4883C238.863 48.4489 238.779 48.4292 238.711 48.4292C238.443 48.4292 238.229 48.4883 238.072 48.6064C237.914 48.721 237.802 48.8965 237.734 49.1328C237.666 49.3691 237.632 49.6717 237.632 50.0405V50.1641C237.632 50.5472 237.676 50.8498 237.766 51.0718C237.859 51.2902 237.975 51.446 238.115 51.5391C238.255 51.6322 238.398 51.6787 238.545 51.6787C238.77 51.6787 238.944 51.6232 239.066 51.5122C239.191 51.3976 239.288 51.2311 239.356 51.0127H240.935L240.956 51.0449C240.87 51.5068 240.736 51.8918 240.553 52.1997C240.371 52.5041 240.117 52.7332 239.791 52.8872C239.468 53.0376 239.046 53.1128 238.523 53.1128ZM241.316 53V51.8989L241.998 51.7271V48.4668L241.187 48.2949V47.1885H243.884V51.7271L244.56 51.8989V53H241.316ZM241.945 46.0874V44.6211H243.884V46.0874H241.945ZM246.725 53.1128C246.163 53.1128 245.705 52.9535 245.35 52.6348C244.996 52.3161 244.818 51.8918 244.818 51.3618C244.818 51.0002 244.915 50.6797 245.108 50.4004C245.305 50.1211 245.599 49.9027 245.989 49.7451C246.383 49.584 246.876 49.5034 247.466 49.5034H248.073V49.1597C248.073 48.9269 248.007 48.73 247.875 48.5688C247.742 48.4041 247.533 48.3218 247.246 48.3218C247.124 48.3218 247.01 48.3379 246.902 48.3701C246.799 48.3988 246.704 48.4417 246.618 48.499L246.489 49.2402H245.162L245.135 47.6235C245.465 47.4767 245.809 47.3496 246.167 47.2422C246.528 47.1348 246.931 47.0811 247.375 47.0811C248.166 47.0811 248.795 47.2637 249.26 47.6289C249.726 47.9906 249.959 48.508 249.959 49.1812V51.3242C249.959 51.4066 249.959 51.4871 249.959 51.5659C249.962 51.6447 249.971 51.7199 249.985 51.7915L250.614 51.8989V53H248.412C248.365 52.9355 248.315 52.8496 248.261 52.7422C248.208 52.6348 248.17 52.5273 248.149 52.4199C247.973 52.6383 247.776 52.8084 247.558 52.9302C247.339 53.0519 247.062 53.1128 246.725 53.1128ZM247.305 51.7808C247.441 51.7808 247.577 51.7539 247.713 51.7002C247.853 51.6429 247.973 51.5588 248.073 51.4478V50.6099H247.488C247.234 50.6099 247.037 50.6654 246.897 50.7764C246.761 50.8874 246.693 51.0342 246.693 51.2168C246.693 51.3923 246.75 51.5301 246.865 51.6304C246.979 51.7306 247.126 51.7808 247.305 51.7808Z" fill="white"/>
</svg>
