<svg width="259" height="56" viewBox="0 0 259 56" fill="none" xmlns="http://www.w3.org/2000/svg">
<ellipse cx="236" cy="19" rx="20" ry="19" fill="#F3C42E"/>
<rect x="54" y="12" width="182" height="18" fill="#F3C42E"/>
<ellipse cx="47" cy="19" rx="20" ry="19" fill="#F3C42E"/>
<path opacity="0.6" d="M42.6836 27V24.998L45.2129 24.6855V15.7012L42.6641 15.6719V13.7773L48.6309 12.7812V24.6855L51.1602 24.998V27H42.6836Z" fill="white"/>
<path d="M231.068 27V24.8027L235.648 19.9785C236.059 19.5098 236.384 19.0964 236.625 18.7383C236.866 18.3802 237.038 18.0514 237.143 17.752C237.253 17.4525 237.309 17.1628 237.309 16.8828C237.309 16.4206 237.185 16.0299 236.938 15.7109C236.69 15.3854 236.319 15.2227 235.824 15.2227C235.284 15.2227 234.883 15.4147 234.623 15.7988C234.363 16.1764 234.232 16.6875 234.232 17.332H230.883L230.863 17.2734C230.844 16.3945 231.033 15.6003 231.43 14.8906C231.833 14.181 232.413 13.6178 233.168 13.2012C233.923 12.7845 234.812 12.5762 235.834 12.5762C236.856 12.5762 237.732 12.7552 238.461 13.1133C239.197 13.4648 239.76 13.9629 240.15 14.6074C240.548 15.2454 240.746 15.9941 240.746 16.8535C240.746 17.4395 240.645 17.9798 240.443 18.4746C240.248 18.9629 239.923 19.487 239.467 20.0469C239.018 20.6068 238.415 21.2839 237.66 22.0781L235.512 24.3535L235.531 24.4023H238.354L238.5 23.2207H241.068V27H231.068Z" fill="white"/>
<path opacity="0.6" d="M0.315529 53V51.8989L1.13731 51.7002V46.4902L0.315529 46.2861V45.1797H1.13731H3.97861C4.68402 45.1797 5.30886 45.3444 5.85313 45.6738C6.3974 45.9997 6.8235 46.4526 7.13145 47.0327C7.43939 47.6092 7.59336 48.2752 7.59336 49.0308V49.1543C7.59336 49.9098 7.43939 50.5776 7.13145 51.1577C6.8235 51.7342 6.3974 52.1854 5.85313 52.5112C5.30886 52.8371 4.68402 53 3.97861 53H0.315529ZM3.02256 51.5713H3.88194C4.2794 51.5713 4.6124 51.471 4.88096 51.2705C5.14951 51.07 5.35182 50.7889 5.48789 50.4272C5.62754 50.062 5.69736 49.6377 5.69736 49.1543V49.0254C5.69736 48.542 5.62754 48.1195 5.48789 47.7578C5.35182 47.3962 5.14951 47.1151 4.88096 46.9146C4.6124 46.714 4.2794 46.6138 3.88194 46.6138H3.02256V51.5713ZM10.0643 53.1128C9.5021 53.1128 9.04377 52.9535 8.68928 52.6348C8.33479 52.3161 8.15754 51.8918 8.15754 51.3618C8.15754 51.0002 8.25422 50.6797 8.44758 50.4004C8.64452 50.1211 8.93814 49.9027 9.32844 49.7451C9.72232 49.584 10.2147 49.5034 10.8055 49.5034H11.4124V49.1597C11.4124 48.9269 11.3462 48.73 11.2137 48.5688C11.0812 48.4041 10.8717 48.3218 10.5853 48.3218C10.4635 48.3218 10.3489 48.3379 10.2415 48.3701C10.1377 48.3988 10.0428 48.4417 9.95686 48.499L9.82795 49.2402H8.50129L8.47444 47.6235C8.80386 47.4767 9.14761 47.3496 9.50569 47.2422C9.86734 47.1348 10.2702 47.0811 10.7142 47.0811C11.5055 47.0811 12.1339 47.2637 12.5994 47.6289C13.0649 47.9906 13.2977 48.508 13.2977 49.1812V51.3242C13.2977 51.4066 13.2977 51.4871 13.2977 51.5659C13.3013 51.6447 13.3102 51.7199 13.3245 51.7915L13.953 51.8989V53H11.7508C11.7043 52.9355 11.6541 52.8496 11.6004 52.7422C11.5467 52.6348 11.5091 52.5273 11.4876 52.4199C11.3122 52.6383 11.1152 52.8084 10.8968 52.9302C10.6784 53.0519 10.4009 53.1128 10.0643 53.1128ZM10.6444 51.7808C10.7804 51.7808 10.9165 51.7539 11.0526 51.7002C11.1922 51.6429 11.3122 51.5588 11.4124 51.4478V50.6099H10.827C10.5727 50.6099 10.3758 50.6654 10.2362 50.7764C10.1001 50.8874 10.0321 51.0342 10.0321 51.2168C10.0321 51.3923 10.0893 51.5301 10.2039 51.6304C10.3185 51.7306 10.4653 51.7808 10.6444 51.7808ZM16.3379 53.1128C15.8832 53.1128 15.4911 52.9928 15.1617 52.7529C14.8358 52.513 14.5852 52.1764 14.4097 51.7432C14.2378 51.3063 14.1519 50.7979 14.1519 50.2178V50.105C14.1519 49.4998 14.2396 48.9717 14.4151 48.5205C14.5905 48.0658 14.8394 47.7131 15.1617 47.4624C15.4875 47.2082 15.8724 47.0811 16.3164 47.0811C16.6244 47.0811 16.8894 47.1455 17.1114 47.2744C17.337 47.3997 17.5339 47.577 17.7022 47.8062V45.8994L16.8858 45.7275V44.6211H17.7022H19.5874V51.7271L20.2642 51.8989V53H17.9546L17.815 52.2803C17.6395 52.5524 17.4318 52.7601 17.1919 52.9033C16.952 53.043 16.6674 53.1128 16.3379 53.1128ZM16.9234 51.668C17.0809 51.668 17.2277 51.6375 17.3638 51.5767C17.4999 51.5158 17.6127 51.4245 17.7022 51.3027V48.9771C17.6127 48.8302 17.5017 48.7192 17.3692 48.644C17.2403 48.5653 17.0953 48.5259 16.9341 48.5259C16.7193 48.5259 16.5456 48.5921 16.4131 48.7246C16.2806 48.8571 16.184 49.0415 16.1231 49.2778C16.0658 49.5142 16.0372 49.7899 16.0372 50.105V50.2178C16.0372 50.6797 16.1016 51.0378 16.2305 51.292C16.3594 51.5426 16.5904 51.668 16.9234 51.668ZM23.2722 53.1128C22.6742 53.1128 22.1622 52.9893 21.7361 52.7422C21.3136 52.4915 20.9895 52.1442 20.7639 51.7002C20.5419 51.2526 20.4309 50.7352 20.4309 50.1479V50.0405C20.4309 49.4604 20.5419 48.9484 20.7639 48.5044C20.9895 48.0604 21.3136 47.7131 21.7361 47.4624C22.1586 47.2082 22.6671 47.0811 23.2615 47.0811C23.8595 47.0811 24.3679 47.2064 24.7869 47.457C25.2094 47.7077 25.5317 48.055 25.7537 48.499C25.9793 48.943 26.0921 49.4569 26.0921 50.0405V50.1479C26.0921 50.7316 25.9793 51.2472 25.7537 51.6948C25.5317 52.1388 25.2094 52.4862 24.7869 52.7368C24.3679 52.9875 23.863 53.1128 23.2722 53.1128ZM23.2722 51.6787C23.5014 51.6787 23.684 51.6178 23.8201 51.4961C23.9597 51.3708 24.06 51.1935 24.1209 50.9644C24.1853 50.7352 24.2175 50.4631 24.2175 50.1479V50.0405C24.2175 49.7362 24.1853 49.4712 24.1209 49.2456C24.06 49.0164 23.9597 48.8392 23.8201 48.7139C23.6804 48.585 23.4942 48.5205 23.2615 48.5205C23.0323 48.5205 22.8479 48.585 22.7083 48.7139C22.5686 48.8392 22.4684 49.0164 22.4075 49.2456C22.3466 49.4712 22.3162 49.7362 22.3162 50.0405V50.1479C22.3162 50.4666 22.3466 50.7406 22.4075 50.9697C22.4684 51.1989 22.5686 51.3743 22.7083 51.4961C22.8479 51.6178 23.0359 51.6787 23.2722 51.6787ZM29.0732 53.1128C28.6149 53.1128 28.187 53.0716 27.7895 52.9893C27.3957 52.9033 27.0394 52.7869 26.7207 52.6401L26.6992 50.8301H27.9722L28.187 51.6733C28.2622 51.7199 28.3589 51.7611 28.477 51.7969C28.5952 51.8291 28.7366 51.8452 28.9014 51.8452C29.2057 51.8452 29.4152 51.804 29.5298 51.7217C29.6444 51.6393 29.7016 51.5355 29.7016 51.4102C29.7016 51.2884 29.6354 51.1774 29.5029 51.0771C29.374 50.9733 29.0965 50.882 28.6704 50.8032C27.9901 50.6707 27.4888 50.4451 27.1665 50.1265C26.8442 49.8042 26.6831 49.4032 26.6831 48.9233C26.6831 48.5975 26.7583 48.2967 26.9087 48.021C27.0591 47.7453 27.3043 47.5233 27.6445 47.355C27.9883 47.1831 28.4466 47.0972 29.0195 47.0972C29.4564 47.0972 29.8717 47.1348 30.2656 47.21C30.6631 47.2852 30.9889 47.38 31.2431 47.4946L31.2378 49.2456H29.9702L29.8091 48.4937C29.7267 48.4364 29.6336 48.3934 29.5298 48.3647C29.4259 48.3361 29.3096 48.3218 29.1806 48.3218C28.9407 48.3218 28.7653 48.3647 28.6543 48.4507C28.5433 48.5366 28.4878 48.6476 28.4878 48.7837C28.4878 48.8625 28.5111 48.9412 28.5576 49.02C28.6077 49.0988 28.7044 49.174 28.8476 49.2456C28.9909 49.3172 29.2003 49.3835 29.4761 49.4443C30.1385 49.5911 30.6362 49.7952 30.9692 50.0566C31.3058 50.318 31.4741 50.7155 31.4741 51.249C31.4741 51.8219 31.2682 52.2767 30.8564 52.6133C30.4482 52.9463 29.8538 53.1128 29.0732 53.1128ZM36.5341 53.1128C36.0794 53.1128 35.6873 52.9928 35.3578 52.7529C35.032 52.513 34.7813 52.1764 34.6059 51.7432C34.434 51.3063 34.3481 50.7979 34.3481 50.2178V50.105C34.3481 49.4998 34.4358 48.9717 34.6113 48.5205C34.7867 48.0658 35.0356 47.7131 35.3578 47.4624C35.6837 47.2082 36.0686 47.0811 36.5126 47.0811C36.8206 47.0811 37.0855 47.1455 37.3075 47.2744C37.5331 47.3997 37.7301 47.577 37.8984 47.8062V45.8994L37.082 45.7275V44.6211H37.8984H39.7836V51.7271L40.4604 51.8989V53H38.1508L38.0112 52.2803C37.8357 52.5524 37.628 52.7601 37.3881 52.9033C37.1482 53.043 36.8635 53.1128 36.5341 53.1128ZM37.1196 51.668C37.2771 51.668 37.4239 51.6375 37.56 51.5767C37.6961 51.5158 37.8088 51.4245 37.8984 51.3027V48.9771C37.8088 48.8302 37.6978 48.7192 37.5654 48.644C37.4364 48.5653 37.2914 48.5259 37.1303 48.5259C36.9155 48.5259 36.7418 48.5921 36.6093 48.7246C36.4768 48.8571 36.3801 49.0415 36.3193 49.2778C36.262 49.5142 36.2333 49.7899 36.2333 50.105V50.2178C36.2333 50.6797 36.2978 51.0378 36.4267 51.292C36.5556 51.5426 36.7865 51.668 37.1196 51.668ZM42.5822 53.1128C42.02 53.1128 41.5617 52.9535 41.2072 52.6348C40.8527 52.3161 40.6754 51.8918 40.6754 51.3618C40.6754 51.0002 40.7721 50.6797 40.9655 50.4004C41.1624 50.1211 41.456 49.9027 41.8463 49.7451C42.2402 49.584 42.7326 49.5034 43.3234 49.5034H43.9303V49.1597C43.9303 48.9269 43.8641 48.73 43.7316 48.5688C43.5991 48.4041 43.3896 48.3218 43.1032 48.3218C42.9814 48.3218 42.8668 48.3379 42.7594 48.3701C42.6556 48.3988 42.5607 48.4417 42.4747 48.499L42.3458 49.2402H41.0192L40.9923 47.6235C41.3218 47.4767 41.6655 47.3496 42.0236 47.2422C42.3852 47.1348 42.7881 47.0811 43.2321 47.0811C44.0234 47.0811 44.6518 47.2637 45.1173 47.6289C45.5828 47.9906 45.8156 48.508 45.8156 49.1812V51.3242C45.8156 51.4066 45.8156 51.4871 45.8156 51.5659C45.8191 51.6447 45.8281 51.7199 45.8424 51.7915L46.4708 51.8989V53H44.2687C44.2221 52.9355 44.172 52.8496 44.1183 52.7422C44.0646 52.6348 44.027 52.5273 44.0055 52.4199C43.8301 52.6383 43.6331 52.8084 43.4147 52.9302C43.1963 53.0519 42.9188 53.1128 42.5822 53.1128ZM43.1622 51.7808C43.2983 51.7808 43.4344 51.7539 43.5704 51.7002C43.7101 51.6429 43.8301 51.5588 43.9303 51.4478V50.6099H43.3449C43.0906 50.6099 42.8937 50.6654 42.754 50.7764C42.618 50.8874 42.5499 51.0342 42.5499 51.2168C42.5499 51.3923 42.6072 51.5301 42.7218 51.6304C42.8364 51.7306 42.9832 51.7808 43.1622 51.7808ZM49.0172 53V51.8989L49.8282 51.7271V46.458L49.0172 46.2861V45.1797H55.2638V47.4355H53.8404L53.7974 46.6299H51.7135V48.2358H54.211V49.6807H51.7135V51.5444H53.8995L53.9425 50.7012H55.3497V53H49.0172ZM55.8226 53V51.8989L56.5101 51.7271V48.4668L55.6937 48.2949V47.1885H58.2771L58.3362 47.9619C58.526 47.6826 58.757 47.466 59.0291 47.312C59.3012 47.158 59.6163 47.0811 59.9744 47.0811C60.3361 47.0811 60.6458 47.1598 60.9036 47.3174C61.165 47.4714 61.3619 47.7077 61.4944 48.0264C61.6699 47.7256 61.8955 47.4928 62.1712 47.3281C62.4505 47.1634 62.7781 47.0811 63.1541 47.0811C63.7163 47.0811 64.1585 47.2708 64.4808 47.6504C64.803 48.0299 64.9642 48.6136 64.9642 49.4014V51.7271L65.6517 51.8989V53H62.5311V51.8989L63.0843 51.7271V49.4014C63.0843 49.0612 63.0306 48.8302 62.9231 48.7085C62.8193 48.5868 62.6671 48.5259 62.4666 48.5259C62.3019 48.5259 62.1533 48.5581 62.0208 48.6226C61.8883 48.6834 61.7719 48.7729 61.6717 48.8911V51.7271L62.1551 51.8989V53H59.3138V51.8989L59.7972 51.7271V49.4014C59.7972 49.0612 59.7452 48.8302 59.6414 48.7085C59.5376 48.5868 59.3818 48.5259 59.1741 48.5259C59.013 48.5259 58.8662 48.5581 58.7337 48.6226C58.6012 48.6834 58.4848 48.7747 58.3846 48.8965V51.7271L58.9378 51.8989V53H55.8226ZM65.8345 55.2344V54.1279L66.5542 53.9561V48.4668L65.7378 48.2949V47.1885H68.3213L68.3858 47.8438C68.5433 47.6003 68.7331 47.4123 68.9551 47.2798C69.1771 47.1473 69.4492 47.0811 69.7715 47.0811C70.2298 47.0811 70.6237 47.2082 70.9531 47.4624C71.2826 47.7131 71.535 48.0658 71.7105 48.5205C71.8895 48.9753 71.979 49.5034 71.979 50.105V50.2178C71.979 50.7979 71.8895 51.3063 71.7105 51.7432C71.535 52.1764 71.2808 52.513 70.9478 52.7529C70.6148 52.9928 70.2137 53.1128 69.7447 53.1128C69.4582 53.1128 69.2058 53.0591 68.9873 52.9517C68.7725 52.8442 68.5863 52.6867 68.4287 52.479V53.9561L69.084 54.1279V55.2344H65.8345ZM69.1861 51.6787C69.5262 51.6787 69.7626 51.5516 69.895 51.2974C70.0275 51.0396 70.0938 50.6797 70.0938 50.2178V50.105C70.0938 49.7863 70.0633 49.5088 70.0025 49.2725C69.9416 49.0361 69.8431 48.8535 69.7071 48.7246C69.5746 48.5921 69.3973 48.5259 69.1753 48.5259C69.0142 48.5259 68.8674 48.5617 68.7349 48.6333C68.606 48.7049 68.5039 48.8123 68.4287 48.9556V51.3242C68.5039 51.4424 68.6078 51.5319 68.7403 51.5928C68.8727 51.6501 69.0213 51.6787 69.1861 51.6787ZM72.5862 53V51.8989L73.2629 51.7271V48.4668L72.4573 48.2949V47.1885H75.0408L75.0837 47.8975L75.0945 48.0425C75.2234 47.7131 75.3827 47.4714 75.5725 47.3174C75.7659 47.1598 76.0058 47.0811 76.2922 47.0811C76.371 47.0811 76.4641 47.0882 76.5715 47.1025C76.6789 47.1133 76.7882 47.1348 76.8992 47.167L76.7112 48.8965L75.9055 48.8589C75.7193 48.8517 75.5725 48.8732 75.4651 48.9233C75.3612 48.9699 75.2556 49.0487 75.1482 49.1597V51.7271L75.8249 51.8989V53H72.5862ZM79.7944 53.1128C79.2251 53.1128 78.7273 52.991 78.3012 52.7476C77.8787 52.5005 77.5493 52.1639 77.313 51.7378C77.0802 51.3117 76.9638 50.8301 76.9638 50.293V50.0942C76.9638 49.5034 77.0677 48.9806 77.2754 48.5259C77.483 48.0711 77.7874 47.7166 78.1884 47.4624C78.5895 47.2046 79.0818 47.0775 79.6655 47.0811C80.1919 47.0811 80.6359 47.1831 80.9975 47.3872C81.3628 47.5877 81.6403 47.8849 81.83 48.2788C82.0198 48.6691 82.1147 49.1507 82.1147 49.7236V50.6958H78.9189L78.9135 50.7334C78.9422 50.916 79.0031 51.0789 79.0962 51.2222C79.1928 51.3618 79.3253 51.4728 79.4936 51.5552C79.6619 51.6375 79.8696 51.6787 80.1167 51.6787C80.3602 51.6787 80.5983 51.6519 80.831 51.5981C81.0673 51.5409 81.3162 51.4513 81.5776 51.3296L82.0073 52.4683C81.7459 52.6545 81.4272 52.8084 81.0512 52.9302C80.6753 53.0519 80.2563 53.1128 79.7944 53.1128ZM78.9189 49.5303H80.396V49.3906C80.396 49.1829 80.3745 49.0093 80.3315 48.8696C80.2921 48.73 80.2223 48.6243 80.122 48.5527C80.0218 48.4811 79.8839 48.4453 79.7085 48.4453C79.5187 48.4453 79.3665 48.4919 79.2519 48.585C79.1409 48.6745 79.0586 48.7998 79.0048 48.9609C78.9547 49.1185 78.9189 49.2993 78.8974 49.5034L78.9189 49.5303ZM85.1281 53.1128C84.6698 53.1128 84.2419 53.0716 83.8444 52.9893C83.4505 52.9033 83.0943 52.7869 82.7756 52.6401L82.7541 50.8301H84.027L84.2419 51.6733C84.3171 51.7199 84.4137 51.7611 84.5319 51.7969C84.6501 51.8291 84.7915 51.8452 84.9562 51.8452C85.2606 51.8452 85.4701 51.804 85.5846 51.7217C85.6992 51.6393 85.7565 51.5355 85.7565 51.4102C85.7565 51.2884 85.6903 51.1774 85.5578 51.0771C85.4289 50.9733 85.1514 50.882 84.7253 50.8032C84.0449 50.6707 83.5436 50.4451 83.2214 50.1265C82.8991 49.8042 82.738 49.4032 82.738 48.9233C82.738 48.5975 82.8132 48.2967 82.9636 48.021C83.1139 47.7453 83.3592 47.5233 83.6994 47.355C84.0431 47.1831 84.5015 47.0972 85.0744 47.0972C85.5112 47.0972 85.9266 47.1348 86.3205 47.21C86.7179 47.2852 87.0438 47.38 87.298 47.4946L87.2927 49.2456H86.0251L85.8639 48.4937C85.7816 48.4364 85.6885 48.3934 85.5846 48.3647C85.4808 48.3361 85.3644 48.3218 85.2355 48.3218C84.9956 48.3218 84.8202 48.3647 84.7092 48.4507C84.5982 48.5366 84.5427 48.6476 84.5427 48.7837C84.5427 48.8625 84.5659 48.9412 84.6125 49.02C84.6626 49.0988 84.7593 49.174 84.9025 49.2456C85.0457 49.3172 85.2552 49.3835 85.5309 49.4443C86.1934 49.5911 86.6911 49.7952 87.0241 50.0566C87.3607 50.318 87.529 50.7155 87.529 51.249C87.529 51.8219 87.3231 52.2767 86.9113 52.6133C86.5031 52.9463 85.9087 53.1128 85.1281 53.1128ZM89.914 53.1128C89.3518 53.1128 88.8935 52.9535 88.539 52.6348C88.1845 52.3161 88.0072 51.8918 88.0072 51.3618C88.0072 51.0002 88.1039 50.6797 88.2973 50.4004C88.4942 50.1211 88.7878 49.9027 89.1781 49.7451C89.572 49.584 90.0644 49.5034 90.6552 49.5034H91.2621V49.1597C91.2621 48.9269 91.1959 48.73 91.0634 48.5688C90.9309 48.4041 90.7214 48.3218 90.435 48.3218C90.3132 48.3218 90.1986 48.3379 90.0912 48.3701C89.9874 48.3988 89.8925 48.4417 89.8065 48.499L89.6776 49.2402H88.351L88.3241 47.6235C88.6535 47.4767 88.9973 47.3496 89.3554 47.2422C89.717 47.1348 90.1199 47.0811 90.5639 47.0811C91.3552 47.0811 91.9836 47.2637 92.4491 47.6289C92.9146 47.9906 93.1474 48.508 93.1474 49.1812V51.3242C93.1474 51.4066 93.1474 51.4871 93.1474 51.5659C93.1509 51.6447 93.1599 51.7199 93.1742 51.7915L93.8026 51.8989V53H91.6005C91.5539 52.9355 91.5038 52.8496 91.4501 52.7422C91.3964 52.6348 91.3588 52.5273 91.3373 52.4199C91.1618 52.6383 90.9649 52.8084 90.7465 52.9302C90.5281 53.0519 90.2506 53.1128 89.914 53.1128ZM90.494 51.7808C90.6301 51.7808 90.7662 51.7539 90.9022 51.7002C91.0419 51.6429 91.1618 51.5588 91.2621 51.4478V50.6099H90.6767C90.4224 50.6099 90.2255 50.6654 90.0858 50.7764C89.9498 50.8874 89.8817 51.0342 89.8817 51.2168C89.8817 51.3923 89.939 51.5301 90.0536 51.6304C90.1682 51.7306 90.315 51.7808 90.494 51.7808Z" fill="white"/>
<path d="M217.396 53.1128C216.652 53.1128 215.987 52.9624 215.404 52.6616C214.82 52.3608 214.362 51.9258 214.029 51.3564C213.696 50.7835 213.529 50.0889 213.529 49.2725V48.9126C213.529 48.1606 213.681 47.4964 213.986 46.9199C214.294 46.3398 214.731 45.8869 215.296 45.561C215.866 45.2316 216.541 45.0669 217.321 45.0669C217.866 45.0669 218.383 45.1403 218.874 45.2871C219.368 45.4303 219.826 45.6774 220.249 46.0283V48.0425H218.879L218.691 46.8877C218.569 46.8053 218.44 46.7337 218.304 46.6729C218.172 46.612 218.028 46.5654 217.874 46.5332C217.724 46.501 217.561 46.4849 217.386 46.4849C216.988 46.4849 216.641 46.5798 216.344 46.7695C216.047 46.9593 215.816 47.235 215.651 47.5967C215.49 47.9548 215.409 48.3898 215.409 48.9019V49.2725C215.409 49.7523 215.493 50.1748 215.662 50.54C215.83 50.9017 216.064 51.1846 216.365 51.3887C216.67 51.5928 217.02 51.6948 217.418 51.6948C217.629 51.6948 217.844 51.6733 218.062 51.6304C218.281 51.5838 218.492 51.5229 218.696 51.4478L218.884 50.3413H220.259V52.3125C219.948 52.5273 219.55 52.7153 219.067 52.8765C218.583 53.034 218.027 53.1128 217.396 53.1128ZM222.607 53.1128C222.044 53.1128 221.586 52.9535 221.232 52.6348C220.877 52.3161 220.7 51.8918 220.7 51.3618C220.7 51.0002 220.797 50.6797 220.99 50.4004C221.187 50.1211 221.481 49.9027 221.871 49.7451C222.265 49.584 222.757 49.5034 223.348 49.5034H223.955V49.1597C223.955 48.9269 223.889 48.73 223.756 48.5688C223.624 48.4041 223.414 48.3218 223.128 48.3218C223.006 48.3218 222.891 48.3379 222.784 48.3701C222.68 48.3988 222.585 48.4417 222.499 48.499L222.37 49.2402H221.044L221.017 47.6235C221.346 47.4767 221.69 47.3496 222.048 47.2422C222.41 47.1348 222.813 47.0811 223.257 47.0811C224.048 47.0811 224.676 47.2637 225.142 47.6289C225.607 47.9906 225.84 48.508 225.84 49.1812V51.3242C225.84 51.4066 225.84 51.4871 225.84 51.5659C225.844 51.6447 225.853 51.7199 225.867 51.7915L226.495 51.8989V53H224.293C224.247 52.9355 224.196 52.8496 224.143 52.7422C224.089 52.6348 224.051 52.5273 224.03 52.4199C223.855 52.6383 223.658 52.8084 223.439 52.9302C223.221 53.0519 222.943 53.1128 222.607 53.1128ZM223.187 51.7808C223.323 51.7808 223.459 51.7539 223.595 51.7002C223.735 51.6429 223.855 51.5588 223.955 51.4478V50.6099H223.369C223.115 50.6099 222.918 50.6654 222.779 50.7764C222.642 50.8874 222.574 51.0342 222.574 51.2168C222.574 51.3923 222.632 51.5301 222.746 51.6304C222.861 51.7306 223.008 51.7808 223.187 51.7808ZM228.88 53.1128C228.426 53.1128 228.033 52.9928 227.704 52.7529C227.378 52.513 227.128 52.1764 226.952 51.7432C226.78 51.3063 226.694 50.7979 226.694 50.2178V50.105C226.694 49.4998 226.782 48.9717 226.957 48.5205C227.133 48.0658 227.382 47.7131 227.704 47.4624C228.03 47.2082 228.415 47.0811 228.859 47.0811C229.167 47.0811 229.432 47.1455 229.654 47.2744C229.879 47.3997 230.076 47.577 230.245 47.8062V45.8994L229.428 45.7275V44.6211H230.245H232.13V51.7271L232.807 51.8989V53H230.497L230.357 52.2803C230.182 52.5524 229.974 52.7601 229.734 52.9033C229.494 53.043 229.21 53.1128 228.88 53.1128ZM229.466 51.668C229.623 51.668 229.77 51.6375 229.906 51.5767C230.042 51.5158 230.155 51.4245 230.245 51.3027V48.9771C230.155 48.8302 230.044 48.7192 229.912 48.644C229.783 48.5653 229.638 48.5259 229.476 48.5259C229.262 48.5259 229.088 48.5921 228.955 48.7246C228.823 48.8571 228.726 49.0415 228.665 49.2778C228.608 49.5142 228.58 49.7899 228.58 50.105V50.2178C228.58 50.6797 228.644 51.0378 228.773 51.292C228.902 51.5426 229.133 51.668 229.466 51.668ZM234.928 53.1128C234.366 53.1128 233.908 52.9535 233.553 52.6348C233.199 52.3161 233.022 51.8918 233.022 51.3618C233.022 51.0002 233.118 50.6797 233.312 50.4004C233.509 50.1211 233.802 49.9027 234.193 49.7451C234.586 49.584 235.079 49.5034 235.67 49.5034H236.277V49.1597C236.277 48.9269 236.21 48.73 236.078 48.5688C235.945 48.4041 235.736 48.3218 235.449 48.3218C235.328 48.3218 235.213 48.3379 235.106 48.3701C235.002 48.3988 234.907 48.4417 234.821 48.499L234.692 49.2402H233.365L233.339 47.6235C233.668 47.4767 234.012 47.3496 234.37 47.2422C234.731 47.1348 235.134 47.0811 235.578 47.0811C236.37 47.0811 236.998 47.2637 237.464 47.6289C237.929 47.9906 238.162 48.508 238.162 49.1812V51.3242C238.162 51.4066 238.162 51.4871 238.162 51.5659C238.165 51.6447 238.174 51.7199 238.189 51.7915L238.817 51.8989V53H236.615C236.568 52.9355 236.518 52.8496 236.464 52.7422C236.411 52.6348 236.373 52.5273 236.352 52.4199C236.176 52.6383 235.979 52.8084 235.761 52.9302C235.542 53.0519 235.265 53.1128 234.928 53.1128ZM235.508 51.7808C235.645 51.7808 235.781 51.7539 235.917 51.7002C236.056 51.6429 236.176 51.5588 236.277 51.4478V50.6099H235.691C235.437 50.6099 235.24 50.6654 235.1 50.7764C234.964 50.8874 234.896 51.0342 234.896 51.2168C234.896 51.3923 234.953 51.5301 235.068 51.6304C235.183 51.7306 235.329 51.7808 235.508 51.7808ZM241.573 53.1128C241.114 53.1128 240.686 53.0716 240.289 52.9893C239.895 52.9033 239.539 52.7869 239.22 52.6401L239.199 50.8301H240.472L240.686 51.6733C240.762 51.7199 240.858 51.7611 240.976 51.7969C241.095 51.8291 241.236 51.8452 241.401 51.8452C241.705 51.8452 241.915 51.804 242.029 51.7217C242.144 51.6393 242.201 51.5355 242.201 51.4102C242.201 51.2884 242.135 51.1774 242.002 51.0771C241.873 50.9733 241.596 50.882 241.17 50.8032C240.489 50.6707 239.988 50.4451 239.666 50.1265C239.344 49.8042 239.182 49.4032 239.182 48.9233C239.182 48.5975 239.258 48.2967 239.408 48.021C239.558 47.7453 239.804 47.5233 240.144 47.355C240.488 47.1831 240.946 47.0972 241.519 47.0972C241.956 47.0972 242.371 47.1348 242.765 47.21C243.162 47.2852 243.488 47.38 243.743 47.4946L243.737 49.2456H242.47L242.308 48.4937C242.226 48.4364 242.133 48.3934 242.029 48.3647C241.925 48.3361 241.809 48.3218 241.68 48.3218C241.44 48.3218 241.265 48.3647 241.154 48.4507C241.043 48.5366 240.987 48.6476 240.987 48.7837C240.987 48.8625 241.01 48.9412 241.057 49.02C241.107 49.0988 241.204 49.174 241.347 49.2456C241.49 49.3172 241.7 49.3835 241.975 49.4443C242.638 49.5911 243.136 49.7952 243.469 50.0566C243.805 50.318 243.973 50.7155 243.973 51.249C243.973 51.8219 243.768 52.2767 243.356 52.6133C242.948 52.9463 242.353 53.1128 241.573 53.1128ZM246.799 53.1235C246.19 53.1235 245.726 52.9624 245.408 52.6401C245.093 52.3143 244.935 51.8005 244.935 51.0986V48.4883H244.21V47.1885H244.935V45.7544H246.81V47.1885H247.76V48.4883H246.81V51.0933C246.81 51.283 246.853 51.4155 246.939 51.4907C247.024 51.5659 247.143 51.6035 247.293 51.6035C247.358 51.6035 247.422 51.5999 247.486 51.5928C247.551 51.5856 247.615 51.5767 247.68 51.5659L247.809 52.9731C247.644 53.0197 247.477 53.0555 247.309 53.0806C247.144 53.1092 246.974 53.1235 246.799 53.1235ZM248.314 53V51.8989L248.991 51.7271V48.4668L248.185 48.2949V47.1885H250.768L250.811 47.8975L250.822 48.0425C250.951 47.7131 251.11 47.4714 251.3 47.3174C251.493 47.1598 251.733 47.0811 252.02 47.0811C252.099 47.0811 252.192 47.0882 252.299 47.1025C252.407 47.1133 252.516 47.1348 252.627 47.167L252.439 48.8965L251.633 48.8589C251.447 48.8517 251.3 48.8732 251.193 48.9233C251.089 48.9699 250.983 49.0487 250.876 49.1597V51.7271L251.553 51.8989V53H248.314ZM255.517 53.1128C254.919 53.1128 254.407 52.9893 253.98 52.7422C253.558 52.4915 253.234 52.1442 253.008 51.7002C252.786 51.2526 252.675 50.7352 252.675 50.1479V50.0405C252.675 49.4604 252.786 48.9484 253.008 48.5044C253.234 48.0604 253.558 47.7131 253.98 47.4624C254.403 47.2082 254.911 47.0811 255.506 47.0811C256.104 47.0811 256.612 47.2064 257.031 47.457C257.454 47.7077 257.776 48.055 257.998 48.499C258.224 48.943 258.336 49.4569 258.336 50.0405V50.1479C258.336 50.7316 258.224 51.2472 257.998 51.6948C257.776 52.1388 257.454 52.4862 257.031 52.7368C256.612 52.9875 256.107 53.1128 255.517 53.1128ZM255.517 51.6787C255.746 51.6787 255.928 51.6178 256.064 51.4961C256.204 51.3708 256.304 51.1935 256.365 50.9644C256.43 50.7352 256.462 50.4631 256.462 50.1479V50.0405C256.462 49.7362 256.43 49.4712 256.365 49.2456C256.304 49.0164 256.204 48.8392 256.064 48.7139C255.925 48.585 255.739 48.5205 255.506 48.5205C255.277 48.5205 255.092 48.585 254.953 48.7139C254.813 48.8392 254.713 49.0164 254.652 49.2456C254.591 49.4712 254.561 49.7362 254.561 50.0405V50.1479C254.561 50.4666 254.591 50.7406 254.652 50.9697C254.713 51.1989 254.813 51.3743 254.953 51.4961C255.092 51.6178 255.28 51.6787 255.517 51.6787Z" fill="white"/>
</svg>
