<svg width="248" height="59" viewBox="0 0 248 59" fill="none" xmlns="http://www.w3.org/2000/svg">
<ellipse cx="218" cy="19" rx="20" ry="19" fill="#C4C4C4"/>
<rect x="36" y="12" width="182" height="18" fill="#C4C4C4"/>
<ellipse cx="29" cy="19" rx="20" ry="19" fill="#F3C42E"/>
<path opacity="0.6" d="M213.068 27V24.8027L217.648 19.9785C218.059 19.5098 218.384 19.0964 218.625 18.7383C218.866 18.3802 219.038 18.0514 219.143 17.752C219.253 17.4525 219.309 17.1628 219.309 16.8828C219.309 16.4206 219.185 16.0299 218.938 15.7109C218.69 15.3854 218.319 15.2227 217.824 15.2227C217.284 15.2227 216.883 15.4147 216.623 15.7988C216.363 16.1764 216.232 16.6875 216.232 17.332H212.883L212.863 17.2734C212.844 16.3945 213.033 15.6003 213.43 14.8906C213.833 14.181 214.413 13.6178 215.168 13.2012C215.923 12.7845 216.812 12.5762 217.834 12.5762C218.856 12.5762 219.732 12.7552 220.461 13.1133C221.197 13.4648 221.76 13.9629 222.15 14.6074C222.548 15.2454 222.746 15.9941 222.746 16.8535C222.746 17.4395 222.645 17.9798 222.443 18.4746C222.248 18.9629 221.923 19.487 221.467 20.0469C221.018 20.6068 220.415 21.2839 219.66 22.0781L217.512 24.3535L217.531 24.4023H220.354L220.5 23.2207H223.068V27H213.068Z" fill="white"/>
<path d="M24.6836 27V24.998L27.2129 24.6855V15.7012L24.6641 15.6719V13.7773L30.6309 12.7812V24.6855L33.1602 24.998V27H24.6836Z" fill="white"/>
<path d="M4.09059 56.1128C3.45322 56.1128 2.88746 56.0519 2.39332 55.9302C1.89918 55.8084 1.40683 55.5793 0.916269 55.2427V53.2124H2.37184L2.53297 54.2544C2.64755 54.3833 2.84986 54.4925 3.1399 54.582C3.42994 54.668 3.74684 54.7109 4.09059 54.7109C4.33049 54.7109 4.53102 54.6823 4.69215 54.625C4.85328 54.5641 4.97503 54.4764 5.05738 54.3618C5.13974 54.2472 5.18092 54.1094 5.18092 53.9482C5.18092 53.7943 5.14153 53.6564 5.06275 53.5347C4.98756 53.4129 4.86223 53.2983 4.68678 53.1909C4.51132 53.0799 4.27499 52.9671 3.97779 52.8525C3.3082 52.6377 2.75855 52.4193 2.32887 52.1973C1.89918 51.9753 1.5787 51.7121 1.36744 51.4077C1.15976 51.1034 1.05592 50.7256 1.05592 50.2744C1.05592 49.8411 1.17945 49.4634 1.42652 49.1411C1.67359 48.8153 2.01376 48.5592 2.44703 48.373C2.8803 48.1868 3.37623 48.0884 3.93482 48.0776C4.57219 48.0633 5.13616 48.1278 5.62672 48.271C6.11728 48.4106 6.55055 48.6237 6.92652 48.9102V50.7954H5.53004L5.30982 49.748C5.18808 49.6872 5.01441 49.6317 4.78883 49.5815C4.56324 49.5314 4.32333 49.5063 4.0691 49.5063C3.85068 49.5063 3.65553 49.535 3.48365 49.5923C3.31536 49.6496 3.18108 49.7355 3.08082 49.8501C2.98414 49.9647 2.9358 50.1079 2.9358 50.2798C2.9358 50.4194 2.97698 50.5448 3.05934 50.6558C3.14169 50.7632 3.28671 50.8724 3.49439 50.9834C3.70208 51.0908 3.99212 51.2161 4.36451 51.3594C5.25253 51.6208 5.92571 51.9484 6.38404 52.3423C6.84596 52.7326 7.07691 53.2643 7.07691 53.9375C7.07691 54.3994 6.95159 54.7933 6.70094 55.1191C6.45029 55.4414 6.10117 55.6885 5.65357 55.8604C5.20598 56.0286 4.68499 56.1128 4.09059 56.1128ZM10.2353 56.1128C9.666 56.1128 9.16827 55.991 8.74217 55.7476C8.31964 55.5005 7.99021 55.1639 7.75389 54.7378C7.52114 54.3117 7.40477 53.8301 7.40477 53.293V53.0942C7.40477 52.5034 7.50861 51.9806 7.71629 51.5259C7.92397 51.0711 8.22833 50.7166 8.62937 50.4624C9.03042 50.2046 9.52277 50.0775 10.1064 50.0811C10.6328 50.0811 11.0768 50.1831 11.4385 50.3872C11.8037 50.5877 12.0812 50.8849 12.271 51.2788C12.4608 51.6691 12.5556 52.1507 12.5556 52.7236V53.6958H9.35984L9.35447 53.7334C9.38312 53.916 9.44399 54.0789 9.53709 54.2222C9.63377 54.3618 9.76626 54.4728 9.93455 54.5552C10.1028 54.6375 10.3105 54.6787 10.5576 54.6787C10.8011 54.6787 11.0392 54.6519 11.272 54.5981C11.5083 54.5409 11.7571 54.4513 12.0185 54.3296L12.4482 55.4683C12.1868 55.6545 11.8681 55.8084 11.4922 55.9302C11.1162 56.0519 10.6972 56.1128 10.2353 56.1128ZM9.35984 52.5303H10.8369V52.3906C10.8369 52.1829 10.8154 52.0093 10.7724 51.8696C10.7331 51.73 10.6632 51.6243 10.563 51.5527C10.4627 51.4811 10.3249 51.4453 10.1494 51.4453C9.95962 51.4453 9.80743 51.4919 9.69285 51.585C9.58185 51.6745 9.49949 51.7998 9.44578 51.9609C9.39565 52.1185 9.35984 52.2993 9.33836 52.5034L9.35984 52.5303ZM15.4079 56.1128C14.8063 56.1128 14.3337 55.923 13.9899 55.5435C13.6462 55.1639 13.4743 54.5767 13.4743 53.7817V51.4668L12.8513 51.2949V50.1885H13.4743H15.3596V53.7925C15.3596 54.0789 15.4187 54.2974 15.5368 54.4478C15.6586 54.5946 15.8394 54.668 16.0793 54.668C16.2189 54.668 16.3568 54.6429 16.4929 54.5928C16.6325 54.5391 16.7561 54.4603 16.8635 54.3564V51.4668L16.2297 51.2949V50.1885H16.8635H18.7487V54.7271L19.4738 54.8989V56H17.1105L16.987 55.3394C16.8008 55.59 16.5734 55.7816 16.3049 55.9141C16.0399 56.0465 15.7409 56.1128 15.4079 56.1128ZM22.31 56.1128C21.8516 56.1128 21.4237 56.0716 21.0263 55.9893C20.6324 55.9033 20.2761 55.7869 19.9574 55.6401L19.936 53.8301H21.2089L21.4237 54.6733C21.4989 54.7199 21.5956 54.7611 21.7138 54.7969C21.832 54.8291 21.9734 54.8452 22.1381 54.8452C22.4425 54.8452 22.6519 54.804 22.7665 54.7217C22.8811 54.6393 22.9384 54.5355 22.9384 54.4102C22.9384 54.2884 22.8722 54.1774 22.7397 54.0771C22.6108 53.9733 22.3333 53.882 21.9071 53.8032C21.2268 53.6707 20.7255 53.4451 20.4032 53.1265C20.081 52.8042 19.9198 52.4032 19.9198 51.9233C19.9198 51.5975 19.995 51.2967 20.1454 51.021C20.2958 50.7453 20.5411 50.5233 20.8813 50.355C21.225 50.1831 21.6834 50.0972 22.2563 50.0972C22.6931 50.0972 23.1085 50.1348 23.5024 50.21C23.8998 50.2852 24.2257 50.38 24.4799 50.4946L24.4745 52.2456H23.207L23.0458 51.4937C22.9635 51.4364 22.8704 51.3934 22.7665 51.3647C22.6627 51.3361 22.5463 51.3218 22.4174 51.3218C22.1775 51.3218 22.002 51.3647 21.891 51.4507C21.78 51.5366 21.7245 51.6476 21.7245 51.7837C21.7245 51.8625 21.7478 51.9412 21.7944 52.02C21.8445 52.0988 21.9412 52.174 22.0844 52.2456C22.2276 52.3172 22.4371 52.3835 22.7128 52.4443C23.3752 52.5911 23.873 52.7952 24.206 53.0566C24.5426 53.318 24.7109 53.7155 24.7109 54.249C24.7109 54.8219 24.505 55.2767 24.0932 55.6133C23.685 55.9463 23.0906 56.1128 22.31 56.1128ZM29.7709 56.1128C29.3161 56.1128 28.924 55.9928 28.5946 55.7529C28.2687 55.513 28.0181 55.1764 27.8426 54.7432C27.6708 54.3063 27.5848 53.7979 27.5848 53.2178V53.105C27.5848 52.4998 27.6726 51.9717 27.848 51.5205C28.0235 51.0658 28.2723 50.7131 28.5946 50.4624C28.9204 50.2082 29.3054 50.0811 29.7494 50.0811C30.0573 50.0811 30.3223 50.1455 30.5443 50.2744C30.7699 50.3997 30.9668 50.577 31.1351 50.8062V48.8994L30.3187 48.7275V47.6211H31.1351H33.0204V54.7271L33.6971 54.8989V56H31.3876L31.2479 55.2803C31.0725 55.5524 30.8648 55.7601 30.6249 55.9033C30.385 56.043 30.1003 56.1128 29.7709 56.1128ZM30.3563 54.668C30.5139 54.668 30.6607 54.6375 30.7967 54.5767C30.9328 54.5158 31.0456 54.4245 31.1351 54.3027V51.9771C31.0456 51.8302 30.9346 51.7192 30.8021 51.644C30.6732 51.5653 30.5282 51.5259 30.3671 51.5259C30.1522 51.5259 29.9785 51.5921 29.8461 51.7246C29.7136 51.8571 29.6169 52.0415 29.556 52.2778C29.4987 52.5142 29.4701 52.7899 29.4701 53.105V53.2178C29.4701 53.6797 29.5345 54.0378 29.6634 54.292C29.7923 54.5426 30.0233 54.668 30.3563 54.668ZM35.8189 56.1128C35.2567 56.1128 34.7984 55.9535 34.4439 55.6348C34.0894 55.3161 33.9122 54.8918 33.9122 54.3618C33.9122 54.0002 34.0089 53.6797 34.2022 53.4004C34.3992 53.1211 34.6928 52.9027 35.0831 52.7451C35.477 52.584 35.9693 52.5034 36.5601 52.5034H37.1671V52.1597C37.1671 51.9269 37.1008 51.73 36.9683 51.5688C36.8359 51.4041 36.6264 51.3218 36.3399 51.3218C36.2182 51.3218 36.1036 51.3379 35.9962 51.3701C35.8923 51.3988 35.7974 51.4417 35.7115 51.499L35.5826 52.2402H34.2559L34.2291 50.6235C34.5585 50.4767 34.9023 50.3496 35.2603 50.2422C35.622 50.1348 36.0248 50.0811 36.4688 50.0811C37.2602 50.0811 37.8886 50.2637 38.3541 50.6289C38.8196 50.9906 39.0523 51.508 39.0523 52.1812V54.3242C39.0523 54.4066 39.0523 54.4871 39.0523 54.5659C39.0559 54.6447 39.0649 54.7199 39.0792 54.7915L39.7076 54.8989V56H37.5054C37.4589 55.9355 37.4088 55.8496 37.3551 55.7422C37.3013 55.6348 37.2637 55.5273 37.2423 55.4199C37.0668 55.6383 36.8699 55.8084 36.6514 55.9302C36.433 56.0519 36.1555 56.1128 35.8189 56.1128ZM36.399 54.7808C36.5351 54.7808 36.6711 54.7539 36.8072 54.7002C36.9469 54.6429 37.0668 54.5588 37.1671 54.4478V53.6099H36.5816C36.3274 53.6099 36.1304 53.6654 35.9908 53.7764C35.8547 53.8874 35.7867 54.0342 35.7867 54.2168C35.7867 54.3923 35.844 54.5301 35.9586 54.6304C36.0732 54.7306 36.22 54.7808 36.399 54.7808ZM42.0926 56.1128C41.6378 56.1128 41.2457 55.9928 40.9163 55.7529C40.5905 55.513 40.3398 55.1764 40.1644 54.7432C39.9925 54.3063 39.9065 53.7979 39.9065 53.2178V53.105C39.9065 52.4998 39.9943 51.9717 40.1697 51.5205C40.3452 51.0658 40.594 50.7131 40.9163 50.4624C41.2422 50.2082 41.6271 50.0811 42.0711 50.0811C42.379 50.0811 42.644 50.1455 42.866 50.2744C43.0916 50.3997 43.2885 50.577 43.4568 50.8062V48.8994L42.6404 48.7275V47.6211H43.4568H45.3421V54.7271L46.0188 54.8989V56H43.7093L43.5696 55.2803C43.3942 55.5524 43.1865 55.7601 42.9466 55.9033C42.7067 56.043 42.422 56.1128 42.0926 56.1128ZM42.678 54.668C42.8356 54.668 42.9824 54.6375 43.1185 54.5767C43.2545 54.5158 43.3673 54.4245 43.4568 54.3027V51.9771C43.3673 51.8302 43.2563 51.7192 43.1238 51.644C42.9949 51.5653 42.8499 51.5259 42.6888 51.5259C42.4739 51.5259 42.3003 51.5921 42.1678 51.7246C42.0353 51.8571 41.9386 52.0415 41.8777 52.2778C41.8204 52.5142 41.7918 52.7899 41.7918 53.105V53.2178C41.7918 53.6797 41.8562 54.0378 41.9852 54.292C42.1141 54.5426 42.345 54.668 42.678 54.668ZM49.0269 56.1128C48.4289 56.1128 47.9169 55.9893 47.4907 55.7422C47.0682 55.4915 46.7442 55.1442 46.5186 54.7002C46.2966 54.2526 46.1856 53.7352 46.1856 53.1479V53.0405C46.1856 52.4604 46.2966 51.9484 46.5186 51.5044C46.7442 51.0604 47.0682 50.7131 47.4907 50.4624C47.9133 50.2082 48.4217 50.0811 49.0161 50.0811C49.6141 50.0811 50.1226 50.2064 50.5415 50.457C50.9641 50.7077 51.2863 51.055 51.5083 51.499C51.7339 51.943 51.8467 52.4569 51.8467 53.0405V53.1479C51.8467 53.7316 51.7339 54.2472 51.5083 54.6948C51.2863 55.1388 50.9641 55.4862 50.5415 55.7368C50.1226 55.9875 49.6177 56.1128 49.0269 56.1128ZM49.0269 54.6787C49.256 54.6787 49.4387 54.6178 49.5747 54.4961C49.7144 54.3708 49.8146 54.1935 49.8755 53.9644C49.94 53.7352 49.9722 53.4631 49.9722 53.1479V53.0405C49.9722 52.7362 49.94 52.4712 49.8755 52.2456C49.8146 52.0164 49.7144 51.8392 49.5747 51.7139C49.4351 51.585 49.2489 51.5205 49.0161 51.5205C48.787 51.5205 48.6026 51.585 48.4629 51.7139C48.3233 51.8392 48.223 52.0164 48.1621 52.2456C48.1013 52.4712 48.0708 52.7362 48.0708 53.0405V53.1479C48.0708 53.4666 48.1013 53.7406 48.1621 53.9697C48.223 54.1989 48.3233 54.3743 48.4629 54.4961C48.6026 54.6178 48.7906 54.6787 49.0269 54.6787ZM54.8279 56.1128C54.3695 56.1128 53.9416 56.0716 53.5442 55.9893C53.1503 55.9033 52.794 55.7869 52.4753 55.6401L52.4538 53.8301H53.7268L53.9416 54.6733C54.0168 54.7199 54.1135 54.7611 54.2317 54.7969C54.3498 54.8291 54.4913 54.8452 54.656 54.8452C54.9604 54.8452 55.1698 54.804 55.2844 54.7217C55.399 54.6393 55.4563 54.5355 55.4563 54.4102C55.4563 54.2884 55.39 54.1774 55.2576 54.0771C55.1287 53.9733 54.8511 53.882 54.425 53.8032C53.7447 53.6707 53.2434 53.4451 52.9211 53.1265C52.5989 52.8042 52.4377 52.4032 52.4377 51.9233C52.4377 51.5975 52.5129 51.2967 52.6633 51.021C52.8137 50.7453 53.059 50.5233 53.3992 50.355C53.7429 50.1831 54.2012 50.0972 54.7742 50.0972C55.211 50.0972 55.6264 50.1348 56.0203 50.21C56.4177 50.2852 56.7436 50.38 56.9978 50.4946L56.9924 52.2456H55.7248L55.5637 51.4937C55.4814 51.4364 55.3883 51.3934 55.2844 51.3647C55.1806 51.3361 55.0642 51.3218 54.9353 51.3218C54.6954 51.3218 54.5199 51.3647 54.4089 51.4507C54.2979 51.5366 54.2424 51.6476 54.2424 51.7837C54.2424 51.8625 54.2657 51.9412 54.3122 52.02C54.3624 52.0988 54.4591 52.174 54.6023 52.2456C54.7455 52.3172 54.955 52.3835 55.2307 52.4443C55.8931 52.5911 56.3909 52.7952 56.7239 53.0566C57.0605 53.318 57.2288 53.7155 57.2288 54.249C57.2288 54.8219 57.0229 55.2767 56.6111 55.6133C56.2029 55.9463 55.6085 56.1128 54.8279 56.1128Z" fill="white"/>
<path opacity="0.6" d="M185.345 56.1128C184.6 56.1128 183.936 55.9624 183.352 55.6616C182.768 55.3608 182.31 54.9258 181.977 54.3564C181.644 53.7835 181.477 53.0889 181.477 52.2725V51.9126C181.477 51.1606 181.63 50.4964 181.934 49.9199C182.242 49.3398 182.679 48.8869 183.245 48.561C183.814 48.2316 184.489 48.0669 185.269 48.0669C185.814 48.0669 186.331 48.1403 186.822 48.2871C187.316 48.4303 187.774 48.6774 188.197 49.0283V51.0425H186.827L186.639 49.8877C186.517 49.8053 186.388 49.7337 186.252 49.6729C186.12 49.612 185.977 49.5654 185.823 49.5332C185.672 49.501 185.509 49.4849 185.334 49.4849C184.936 49.4849 184.589 49.5798 184.292 49.7695C183.995 49.9593 183.764 50.235 183.599 50.5967C183.438 50.9548 183.357 51.3898 183.357 51.9019V52.2725C183.357 52.7523 183.441 53.1748 183.61 53.54C183.778 53.9017 184.013 54.1846 184.313 54.3887C184.618 54.5928 184.969 54.6948 185.366 54.6948C185.577 54.6948 185.792 54.6733 186.011 54.6304C186.229 54.5838 186.44 54.5229 186.644 54.4478L186.832 53.3413H188.207V55.3125C187.896 55.5273 187.498 55.7153 187.015 55.8765C186.532 56.034 185.975 56.1128 185.345 56.1128ZM191.43 56.1128C190.832 56.1128 190.32 55.9893 189.894 55.7422C189.472 55.4915 189.148 55.1442 188.922 54.7002C188.7 54.2526 188.589 53.7352 188.589 53.1479V53.0405C188.589 52.4604 188.7 51.9484 188.922 51.5044C189.148 51.0604 189.472 50.7131 189.894 50.4624C190.317 50.2082 190.825 50.0811 191.42 50.0811C192.018 50.0811 192.526 50.2064 192.945 50.457C193.367 50.7077 193.69 51.055 193.912 51.499C194.137 51.943 194.25 52.4569 194.25 53.0405V53.1479C194.25 53.7316 194.137 54.2472 193.912 54.6948C193.69 55.1388 193.367 55.4862 192.945 55.7368C192.526 55.9875 192.021 56.1128 191.43 56.1128ZM191.43 54.6787C191.659 54.6787 191.842 54.6178 191.978 54.4961C192.118 54.3708 192.218 54.1935 192.279 53.9644C192.343 53.7352 192.376 53.4631 192.376 53.1479V53.0405C192.376 52.7362 192.343 52.4712 192.279 52.2456C192.218 52.0164 192.118 51.8392 191.978 51.7139C191.838 51.585 191.652 51.5205 191.42 51.5205C191.19 51.5205 191.006 51.585 190.866 51.7139C190.727 51.8392 190.626 52.0164 190.566 52.2456C190.505 52.4712 190.474 52.7362 190.474 53.0405V53.1479C190.474 53.4666 190.505 53.7406 190.566 53.9697C190.626 54.1989 190.727 54.3743 190.866 54.4961C191.006 54.6178 191.194 54.6787 191.43 54.6787ZM194.556 56V54.8989L195.244 54.7271V51.4668L194.428 51.2949V50.1885H197.011L197.07 50.9619C197.26 50.6826 197.491 50.466 197.763 50.312C198.035 50.158 198.35 50.0811 198.708 50.0811C199.07 50.0811 199.38 50.1598 199.638 50.3174C199.899 50.4714 200.096 50.7077 200.228 51.0264C200.404 50.7256 200.629 50.4928 200.905 50.3281C201.184 50.1634 201.512 50.0811 201.888 50.0811C202.45 50.0811 202.892 50.2708 203.215 50.6504C203.537 51.0299 203.698 51.6136 203.698 52.4014V54.7271L204.386 54.8989V56H201.265V54.8989L201.818 54.7271V52.4014C201.818 52.0612 201.764 51.8302 201.657 51.7085C201.553 51.5868 201.401 51.5259 201.201 51.5259C201.036 51.5259 200.887 51.5581 200.755 51.6226C200.622 51.6834 200.506 51.7729 200.406 51.8911V54.7271L200.889 54.8989V56H198.048V54.8989L198.531 54.7271V52.4014C198.531 52.0612 198.479 51.8302 198.375 51.7085C198.271 51.5868 198.116 51.5259 197.908 51.5259C197.747 51.5259 197.6 51.5581 197.468 51.6226C197.335 51.6834 197.219 51.7747 197.118 51.8965V54.7271L197.672 54.8989V56H194.556ZM204.568 58.2344V57.1279L205.288 56.9561V51.4668L204.472 51.2949V50.1885H207.055L207.12 50.8438C207.277 50.6003 207.467 50.4123 207.689 50.2798C207.911 50.1473 208.183 50.0811 208.505 50.0811C208.964 50.0811 209.358 50.2082 209.687 50.4624C210.016 50.7131 210.269 51.0658 210.444 51.5205C210.623 51.9753 210.713 52.5034 210.713 53.105V53.2178C210.713 53.7979 210.623 54.3063 210.444 54.7432C210.269 55.1764 210.015 55.513 209.682 55.7529C209.349 55.9928 208.948 56.1128 208.479 56.1128C208.192 56.1128 207.94 56.0591 207.721 55.9517C207.506 55.8442 207.32 55.6867 207.163 55.479V56.9561L207.818 57.1279V58.2344H204.568ZM207.92 54.6787C208.26 54.6787 208.496 54.5516 208.629 54.2974C208.761 54.0396 208.828 53.6797 208.828 53.2178V53.105C208.828 52.7863 208.797 52.5088 208.736 52.2725C208.676 52.0361 208.577 51.8535 208.441 51.7246C208.308 51.5921 208.131 51.5259 207.909 51.5259C207.748 51.5259 207.601 51.5617 207.469 51.6333C207.34 51.7049 207.238 51.8123 207.163 51.9556V54.3242C207.238 54.4424 207.342 54.5319 207.474 54.5928C207.607 54.6501 207.755 54.6787 207.92 54.6787ZM213.968 56.1128C213.399 56.1128 212.901 55.991 212.475 55.7476C212.052 55.5005 211.723 55.1639 211.487 54.7378C211.254 54.3117 211.137 53.8301 211.137 53.293V53.0942C211.137 52.5034 211.241 51.9806 211.449 51.5259C211.657 51.0711 211.961 50.7166 212.362 50.4624C212.763 50.2046 213.255 50.0775 213.839 50.0811C214.366 50.0811 214.81 50.1831 215.171 50.3872C215.536 50.5877 215.814 50.8849 216.004 51.2788C216.193 51.6691 216.288 52.1507 216.288 52.7236V53.6958H213.093L213.087 53.7334C213.116 53.916 213.177 54.0789 213.27 54.2222C213.366 54.3618 213.499 54.4728 213.667 54.5552C213.836 54.6375 214.043 54.6787 214.29 54.6787C214.534 54.6787 214.772 54.6519 215.005 54.5981C215.241 54.5409 215.49 54.4513 215.751 54.3296L216.181 55.4683C215.92 55.6545 215.601 55.8084 215.225 55.9302C214.849 56.0519 214.43 56.1128 213.968 56.1128ZM213.093 52.5303H214.57V52.3906C214.57 52.1829 214.548 52.0093 214.505 51.8696C214.466 51.73 214.396 51.6243 214.296 51.5527C214.195 51.4811 214.058 51.4453 213.882 51.4453C213.692 51.4453 213.54 51.4919 213.426 51.585C213.315 51.6745 213.232 51.7998 213.178 51.9609C213.128 52.1185 213.093 52.2993 213.071 52.5034L213.093 52.5303ZM219.162 56.1235C218.553 56.1235 218.09 55.9624 217.771 55.6401C217.456 55.3143 217.298 54.8005 217.298 54.0986V51.4883H216.573V50.1885H217.298V48.7544H219.173V50.1885H220.124V51.4883H219.173V54.0933C219.173 54.283 219.216 54.4155 219.302 54.4907C219.388 54.5659 219.506 54.6035 219.656 54.6035C219.721 54.6035 219.785 54.5999 219.85 54.5928C219.914 54.5856 219.979 54.5767 220.043 54.5659L220.172 55.9731C220.007 56.0197 219.841 56.0555 219.672 56.0806C219.508 56.1092 219.338 56.1235 219.162 56.1235ZM223.346 56.1128C222.777 56.1128 222.279 55.991 221.853 55.7476C221.431 55.5005 221.101 55.1639 220.865 54.7378C220.632 54.3117 220.516 53.8301 220.516 53.293V53.0942C220.516 52.5034 220.62 51.9806 220.827 51.5259C221.035 51.0711 221.339 50.7166 221.74 50.4624C222.141 50.2046 222.634 50.0775 223.217 50.0811C223.744 50.0811 224.188 50.1831 224.55 50.3872C224.915 50.5877 225.192 50.8849 225.382 51.2788C225.572 51.6691 225.667 52.1507 225.667 52.7236V53.6958H222.471L222.466 53.7334C222.494 53.916 222.555 54.0789 222.648 54.2222C222.745 54.3618 222.877 54.4728 223.046 54.5552C223.214 54.6375 223.422 54.6787 223.669 54.6787C223.912 54.6787 224.15 54.6519 224.383 54.5981C224.619 54.5409 224.868 54.4513 225.13 54.3296L225.559 55.4683C225.298 55.6545 224.979 55.8084 224.603 55.9302C224.227 56.0519 223.808 56.1128 223.346 56.1128ZM222.471 52.5303H223.948V52.3906C223.948 52.1829 223.926 52.0093 223.884 51.8696C223.844 51.73 223.774 51.6243 223.674 51.5527C223.574 51.4811 223.436 51.4453 223.26 51.4453C223.071 51.4453 222.919 51.4919 222.804 51.585C222.693 51.6745 222.611 51.7998 222.557 51.9609C222.507 52.1185 222.471 52.2993 222.449 52.5034L222.471 52.5303ZM221.048 49.0874V48.9478L222.444 47.6211H223.926L225.301 48.9692V49.0874H223.851L223.18 48.3247L222.471 49.0874H221.048ZM226.016 56V54.8989L226.693 54.7271V51.4668L225.887 51.2949V50.1885H228.476L228.54 50.9995C228.734 50.7095 228.97 50.4839 229.249 50.3228C229.532 50.1616 229.853 50.0811 230.211 50.0811C230.755 50.0811 231.185 50.2655 231.5 50.6343C231.815 51.0031 231.973 51.5885 231.973 52.3906V54.7271L232.649 54.8989V56H229.534V54.8989L230.082 54.7271V52.3853C230.082 52.0737 230.019 51.8535 229.894 51.7246C229.769 51.5921 229.59 51.5259 229.357 51.5259C229.181 51.5259 229.031 51.5581 228.906 51.6226C228.78 51.6834 228.671 51.7765 228.578 51.9019V54.7271L229.061 54.8989V56H226.016ZM235.523 56.1128C234.947 56.1128 234.451 55.9857 234.035 55.7314C233.62 55.4772 233.301 55.1281 233.079 54.6841C232.857 54.2401 232.746 53.7334 232.746 53.1641V53.0405C232.746 52.4569 232.861 51.943 233.09 51.499C233.323 51.055 233.645 50.7077 234.057 50.457C234.472 50.2064 234.956 50.0811 235.507 50.0811C236.062 50.0811 236.536 50.1652 236.93 50.3335C237.328 50.5018 237.641 50.6772 237.87 50.8599L237.838 52.6914H236.436L236.211 51.6387C236.15 51.5778 236.067 51.5277 235.964 51.4883C235.863 51.4489 235.779 51.4292 235.711 51.4292C235.443 51.4292 235.229 51.4883 235.072 51.6064C234.914 51.721 234.802 51.8965 234.734 52.1328C234.666 52.3691 234.632 52.6717 234.632 53.0405V53.1641C234.632 53.5472 234.676 53.8498 234.766 54.0718C234.859 54.2902 234.975 54.446 235.115 54.5391C235.255 54.6322 235.398 54.6787 235.545 54.6787C235.77 54.6787 235.944 54.6232 236.066 54.5122C236.191 54.3976 236.288 54.2311 236.356 54.0127H237.935L237.956 54.0449C237.87 54.5068 237.736 54.8918 237.553 55.1997C237.371 55.5041 237.117 55.7332 236.791 55.8872C236.468 56.0376 236.046 56.1128 235.523 56.1128ZM238.316 56V54.8989L238.998 54.7271V51.4668L238.187 51.2949V50.1885H240.884V54.7271L241.56 54.8989V56H238.316ZM238.945 49.0874V47.6211H240.884V49.0874H238.945ZM243.725 56.1128C243.163 56.1128 242.705 55.9535 242.35 55.6348C241.996 55.3161 241.818 54.8918 241.818 54.3618C241.818 54.0002 241.915 53.6797 242.108 53.4004C242.305 53.1211 242.599 52.9027 242.989 52.7451C243.383 52.584 243.876 52.5034 244.466 52.5034H245.073V52.1597C245.073 51.9269 245.007 51.73 244.875 51.5688C244.742 51.4041 244.533 51.3218 244.246 51.3218C244.124 51.3218 244.01 51.3379 243.902 51.3701C243.799 51.3988 243.704 51.4417 243.618 51.499L243.489 52.2402H242.162L242.135 50.6235C242.465 50.4767 242.809 50.3496 243.167 50.2422C243.528 50.1348 243.931 50.0811 244.375 50.0811C245.166 50.0811 245.795 50.2637 246.26 50.6289C246.726 50.9906 246.959 51.508 246.959 52.1812V54.3242C246.959 54.4066 246.959 54.4871 246.959 54.5659C246.962 54.6447 246.971 54.7199 246.985 54.7915L247.614 54.8989V56H245.412C245.365 55.9355 245.315 55.8496 245.261 55.7422C245.208 55.6348 245.17 55.5273 245.149 55.4199C244.973 55.6383 244.776 55.8084 244.558 55.9302C244.339 56.0519 244.062 56.1128 243.725 56.1128ZM244.305 54.7808C244.441 54.7808 244.577 54.7539 244.713 54.7002C244.853 54.6429 244.973 54.5588 245.073 54.4478V53.6099H244.488C244.234 53.6099 244.037 53.6654 243.897 53.7764C243.761 53.8874 243.693 54.0342 243.693 54.2168C243.693 54.3923 243.75 54.5301 243.865 54.6304C243.979 54.7306 244.126 54.7808 244.305 54.7808Z" fill="white"/>
</svg>
