<svg width="111" height="119" viewBox="0 0 111 119" fill="none" xmlns="http://www.w3.org/2000/svg">
<circle cx="55.5" cy="55.5" r="55.5" fill="#F3C42E"/>
<g clip-path="url(#clip0_827_1056)">
<path d="M82.9804 72.095C84.0702 65.562 85.4952 58.9848 85.602 52.4077C85.7161 45.5067 83.5069 38.9442 78.562 33.6884C71.8497 26.5518 63.3553 24.0048 53.8667 24.4539C37.2498 25.2415 26.8887 35.3778 25.7546 52.2899C25.2575 59.6915 27.3599 66.714 28.8107 73.8322C29.3077 76.2798 29.12 78.5838 26.9181 80.148C25.5153 81.1455 25.4821 82.338 26.4468 83.3464C28.5676 85.5585 30.8947 87.5717 33.2953 89.8095C33.2953 90.6892 33.2953 92.2019 33.2953 93.0373C32.1061 96.8578 31.0199 99.9273 30.2724 103.074C30.1104 103.755 31.1708 104.723 31.6642 105.562C32.3012 104.848 33.4095 104.178 33.4868 103.409C33.7703 100.502 34.9964 98.0024 37.294 96.5339C39.8861 94.8776 42.9385 93.9464 45.77 92.6546C55.1333 88.3814 63.8081 91.5099 72.4277 95.1353C73.1531 95.4408 73.7827 96.0149 74.3902 96.5449C76.7836 98.6208 78.2748 101.142 78.5988 104.399C78.6761 105.202 79.7328 105.908 80.3404 106.659C80.8632 105.761 81.5886 104.915 81.8463 103.947C82.0341 103.24 81.7359 102.32 81.4376 101.584C80.3551 98.9115 79.1805 96.2762 77.9802 93.4827C78.1606 92.9932 78.6761 92.1835 78.6945 91.3627C78.7129 90.5861 78.2159 89.7948 78.1643 89.6476C80.5208 87.6711 82.7742 86.0701 84.6152 84.0862C85.2632 83.3869 85.4363 81.0571 84.9134 80.6523C81.7911 78.2341 82.4428 75.3118 82.9804 72.095ZM58.3367 82.8974C58.1305 84.0273 58.2815 85.2272 58.2815 86.6221C56.6724 86.6221 55.1996 86.6221 53.6348 86.6221C53.5943 86.5743 53.366 86.4308 53.3807 86.313C53.8005 82.8974 52.5412 80.9099 49.2421 79.2868C44.728 77.0674 42.3678 72.6839 40.6778 67.9728C40.2654 66.8281 39.135 65.7681 38.0746 65.0688C36.4324 63.9867 35.5524 59.8866 37.2241 58.2745C40.1218 55.4736 43.5461 53.3867 48.1302 52.2016C47.6294 53.3242 47.379 53.8026 47.1949 54.3069C46.3554 56.6035 46.9004 57.5053 49.3931 57.5642C55.9066 57.7187 62.096 56.552 67.4828 52.8089C69.5999 54.4357 71.684 55.9631 73.6907 57.5899C76.0398 59.4964 75.3733 63.8653 72.6855 65.1645C72.0153 65.4884 71.4152 66.3276 71.1538 67.0637C68.9998 73.1108 65.7928 78.201 59.5702 80.84C58.9589 81.0939 58.4766 82.1429 58.3367 82.8974ZM81.3198 61.8814C80.4177 66.265 79.3646 70.6522 78.9596 75.0873C78.7424 77.4944 79.7439 80.0119 80.3477 83.3207C79.4751 83.7108 77.9029 84.8297 76.2018 85.0837C73.1789 85.5364 72.818 85.7204 73.455 88.709C73.617 89.4598 73.8748 90.1923 74.2135 91.37C70.2369 90.1003 66.5733 89.0255 62.9871 87.7447C61.5179 87.2221 61.4443 84.2703 62.9024 83.5121C68.5138 80.5971 71.8092 75.8307 74.0368 70.1185C74.2798 69.4965 74.7916 68.915 75.3181 68.4844C80.4251 64.318 80.1305 57.5237 74.7511 53.626C73.0205 52.3709 71.4152 50.8729 69.9939 49.2719C68.661 47.7702 67.6669 47.3764 65.9953 48.8633C62.2102 52.231 57.5856 53.453 52.3755 53.7805C52.6333 53.1291 52.8174 52.7463 52.9352 52.3451C53.3218 51.0532 53.6863 49.7577 54.0582 48.4621C52.7069 48.2339 51.3077 47.6635 50.0117 47.8364C44.2235 48.6057 39.2013 51.3183 34.8528 55.0172C31.3439 57.9985 31.9514 66.4601 36.0569 68.396C36.6902 68.6941 37.2535 69.4965 37.5076 70.1921C39.5805 75.9007 42.9938 80.4388 48.3548 83.4789C48.9917 83.8396 49.4557 85.0653 49.4299 85.8713C49.4078 86.5559 48.6898 87.5754 48.0492 87.8146C44.6175 89.0844 41.1123 90.1555 37.0731 91.4768C37.5481 90.1297 37.8942 89.4046 38.0562 88.6391C38.6343 85.9302 38.0746 85.4996 35.3941 85.091C33.6599 84.826 32.0471 83.7881 29.9963 82.9379C33.7409 78.7163 32.6805 74.4542 31.9625 70.1701C31.042 64.686 29.5507 59.1689 29.5876 53.6775C29.7164 33.9718 45.3871 26.2905 60.0783 28.5393C68.8783 29.8864 75.9514 33.7804 79.6003 42.2972C82.2845 48.5762 82.7042 55.1644 81.3198 61.8814Z" fill="white"/>
</g>
<defs>
<clipPath id="clip0_827_1056">
<rect width="88" height="106" fill="white" transform="translate(8 13)"/>
</clipPath>
</defs>
</svg>
