<svg width="70" height="84" viewBox="0 0 70 84" fill="none" xmlns="http://www.w3.org/2000/svg">
<g clip-path="url(#clip0_94_548)">
<path d="M59.6432 46.83C60.5101 41.6529 61.6436 36.4408 61.7285 31.2288C61.8193 25.76 60.062 20.5596 56.1285 16.3946C50.7892 10.7392 44.0323 8.72083 36.4846 9.07667C23.2666 9.70083 15.0248 17.7333 14.1227 31.1354C13.7273 37.0008 15.3997 42.5658 16.5536 48.2067C16.949 50.1462 16.7997 51.9721 15.0482 53.2117C13.9323 54.0021 13.9059 54.9471 14.6733 55.7463C16.3603 57.4992 18.2114 59.0946 20.121 60.8679C20.121 61.565 20.121 62.7638 20.121 63.4258C19.175 66.4533 18.311 68.8858 17.7164 71.3796C17.5875 71.9192 18.431 72.6862 18.8235 73.3512C19.3302 72.7854 20.2118 72.2546 20.2733 71.645C20.4988 69.3408 21.4741 67.3604 23.3018 66.1967C25.3637 64.8842 27.7917 64.1462 30.044 63.1225C37.4921 59.7362 44.3925 62.2154 51.249 65.0883C51.826 65.3304 52.3269 65.7854 52.8101 66.2054C54.7139 67.8504 55.9001 69.8483 56.1578 72.4296C56.2193 73.0654 57.0599 73.6254 57.5432 74.2204C57.9591 73.5088 58.5361 72.8379 58.7411 72.0708C58.8905 71.5108 58.6532 70.7817 58.416 70.1983C57.5549 68.0808 56.6206 65.9925 55.6658 63.7787C55.8093 63.3908 56.2193 62.7492 56.234 62.0988C56.2486 61.4833 55.8532 60.8563 55.8122 60.7396C57.6867 59.1733 59.4792 57.9046 60.9436 56.3325C61.4591 55.7783 61.5967 53.9321 61.1808 53.6112C58.6972 51.695 59.2156 49.3792 59.6432 46.83ZM40.0402 55.3904C39.8762 56.2858 39.9963 57.2367 39.9963 58.3421C38.7164 58.3421 37.5448 58.3421 36.3001 58.3421C36.2679 58.3042 36.0863 58.1904 36.098 58.0971C36.4319 55.3904 35.4302 53.8154 32.8059 52.5292C29.2151 50.7704 27.3377 47.2967 25.9934 43.5633C25.6654 42.6562 24.7662 41.8162 23.9227 41.2621C22.6164 40.4046 21.9164 37.1554 23.2461 35.8779C25.5511 33.6583 28.275 32.0046 31.9214 31.0654C31.5231 31.955 31.3239 32.3342 31.1775 32.7338C30.5097 34.5538 30.9432 35.2683 32.926 35.315C38.1072 35.4375 43.0306 34.5129 47.3156 31.5467C48.9997 32.8358 50.6574 34.0462 52.2536 35.3354C54.1223 36.8463 53.5921 40.3083 51.4541 41.3379C50.921 41.5946 50.4436 42.2596 50.2356 42.8429C48.5223 47.635 45.9712 51.6688 41.0214 53.76C40.5352 53.9613 40.1515 54.7925 40.0402 55.3904ZM58.3223 38.7362C57.6047 42.21 56.767 45.6867 56.4449 49.2012C56.272 51.1087 57.0687 53.1037 57.549 55.7258C56.8549 56.035 55.6043 56.9217 54.2511 57.1229C51.8465 57.4817 51.5595 57.6275 52.0662 59.9958C52.1951 60.5908 52.4001 61.1712 52.6695 62.1046C49.5064 61.0983 46.5921 60.2467 43.7394 59.2317C42.5708 58.8175 42.5122 56.4783 43.672 55.8775C48.1356 53.5675 50.757 49.7904 52.529 45.2638C52.7223 44.7708 53.1294 44.31 53.5482 43.9688C57.6105 40.6671 57.3762 35.2829 53.0971 32.1942C51.7206 31.1996 50.4436 30.0125 49.313 28.7438C48.2528 27.5538 47.462 27.2417 46.1323 28.42C43.1214 31.0888 39.4428 32.0571 35.2984 32.3167C35.5034 31.8004 35.6499 31.4971 35.7436 31.1792C36.0511 30.1554 36.3411 29.1287 36.6369 28.1021C35.562 27.9212 34.449 27.4692 33.4181 27.6063C28.8139 28.2158 24.8189 30.3654 21.3599 33.2967C18.5687 35.6592 19.052 42.3646 22.3177 43.8987C22.8214 44.135 23.2695 44.7708 23.4716 45.3221C25.1206 49.8458 27.8356 53.4421 32.1001 55.8512C32.6068 56.1371 32.9758 57.1083 32.9553 57.7471C32.9377 58.2896 32.3666 59.0975 31.857 59.2871C29.1273 60.2933 26.339 61.1421 23.126 62.1892C23.5038 61.1217 23.7792 60.5471 23.908 59.9404C24.3679 57.7937 23.9227 57.4525 21.7905 57.1287C20.411 56.9187 19.1281 56.0962 17.4967 55.4225C20.4754 52.0771 19.6319 48.6996 19.0607 45.3046C18.3285 40.9587 17.1423 36.5867 17.1716 32.235C17.2741 16.6192 29.7394 10.5321 41.4256 12.3142C48.4256 13.3817 54.052 16.4675 56.9545 23.2167C59.0896 28.1925 59.4235 33.4133 58.3223 38.7362Z" fill="black"/>
</g>
<defs>
<clipPath id="clip0_94_548">
<rect width="70" height="84" fill="white"/>
</clipPath>
</defs>
</svg>
