<svg width="140" height="67" viewBox="0 0 140 67" fill="none" xmlns="http://www.w3.org/2000/svg">
<path d="M139.998 27.0771C139.201 28.7312 137.839 29.0616 136.11 29.0093C132.508 28.9023 128.901 29.0045 125.299 28.957C124.464 28.9451 124.25 29.1709 124.255 30.0027C124.286 38.5919 124.279 47.1787 124.272 55.7679C124.269 57.6289 122.985 58.7887 121.143 58.627C119.631 58.4963 118.727 57.4744 118.72 55.806C118.706 52.0057 118.715 48.2078 118.715 44.4076C118.715 39.6971 118.675 34.9866 118.746 30.2784C118.763 29.1471 118.401 28.9214 117.362 28.9523C114.92 29.0259 112.476 28.976 109.965 28.976C111.615 26.9987 111.601 25.8959 109.908 24.1633C110.317 23.9209 110.743 24.0326 111.135 24.0302C119.452 24.0231 127.772 24.0516 136.089 24.0041C137.951 23.9946 139.42 24.3725 140 26.3617C139.998 26.6018 139.998 26.8394 139.998 27.0771Z" fill="#492782"/>
<path d="M0 14.488C1.57878 13.2094 1.97585 13.2379 3.46428 14.7233C6.23427 17.4921 9.00189 20.2633 11.779 23.0249C12.4257 23.669 12.5613 24.3772 12.1262 25.171C11.7172 25.9197 11.0229 26.0052 10.2739 25.8698C9.81743 25.7866 9.55351 25.4016 9.24679 25.0997C6.16294 22.041 3.08147 18.9775 0 15.914C0 15.4387 0 14.9633 0 14.488Z" fill="#F3C42E"/>
<path d="M23.054 0C23.3465 0.306587 23.8291 0.308964 24.0812 0.727254C24.5519 1.51155 24.3879 2.524 23.6365 3.02785C22.8995 3.52219 21.9365 3.36533 21.4229 2.6666C20.8927 1.94647 21.0401 0.879359 21.7534 0.344614C21.9341 0.209145 22.1457 0.114079 22.3431 0.00237625C22.5785 -3.98859e-07 22.8162 0 23.054 0Z" fill="#F3C42E"/>
<path d="M15.2004 0.230535C15.2218 0.154482 15.2266 0.0784293 15.21 0C15.6855 0 16.161 0 16.6366 0C16.627 0.0760526 16.6342 0.149728 16.6556 0.223404C16.1729 0.639317 15.6879 0.634565 15.2004 0.230535Z" fill="#F3C42E"/>
<path d="M45.442 43.3832C45.4563 44.0938 45.2328 44.5953 44.6313 44.9114C44.0463 45.2156 43.4781 45.2085 42.9479 44.8401C42.6269 44.6167 42.3534 44.3196 42.0753 44.0415C29.8968 31.8755 17.7183 19.7047 5.53988 7.53628C5.28784 7.28436 5.00252 7.05145 4.81468 6.75674C4.3653 6.05563 4.33439 5.32838 4.93357 4.68906C5.52323 4.05925 6.25556 3.9832 6.9855 4.39673C7.35404 4.60588 7.65601 4.94574 7.96273 5.25233C20.115 17.3899 32.265 29.5321 44.4149 41.6744C44.9142 42.1735 45.5229 42.6156 45.442 43.3832Z" fill="#F3C42E"/>
<path d="M47.1778 41.318C46.2173 41.3323 45.7726 40.8071 45.2947 40.3293C39.6382 34.6753 33.9794 29.0236 28.3205 23.3696C23.2227 18.2765 18.125 13.1833 13.0296 8.08778C12.7515 7.80971 12.44 7.54115 12.2355 7.2108C11.7837 6.4883 11.8456 5.73015 12.4566 5.15262C13.101 4.5442 13.8809 4.53707 14.6346 5.02191C14.7986 5.12648 14.9294 5.28571 15.0673 5.42356C25.9927 16.3371 36.9158 27.253 47.8388 38.1666C48.3857 38.7132 48.8731 39.2836 48.5807 40.1416C48.3263 40.9045 47.7675 41.2729 47.1778 41.318Z" fill="#F3C42E"/>
<path d="M35.3229 40.3174C35.2682 40.9116 34.9686 41.4178 34.4027 41.7054C33.8416 41.9929 33.2519 41.9715 32.7217 41.5889C32.5006 41.4273 32.3127 41.2181 32.1154 41.0233C23.1587 32.0752 14.202 23.1271 5.25002 14.1743C4.97421 13.8986 4.69602 13.6015 4.50581 13.2664C4.11825 12.5819 4.34175 11.9426 4.85295 11.434C5.338 10.9516 5.93717 10.8232 6.60054 11.1084C7.02139 11.289 7.29245 11.6289 7.59917 11.9331C16.5297 20.8527 25.4555 29.7746 34.3861 38.6918C34.8402 39.1386 35.3134 39.5664 35.3229 40.3174Z" fill="#F3C42E"/>
<path d="M52.3161 29.4419C52.3327 30.7396 51.0416 31.5167 49.9051 30.8727C49.6031 30.7015 49.344 30.4401 49.0943 30.1906C41.2836 22.3904 33.473 14.5879 25.6671 6.78299C25.4436 6.55958 25.1987 6.34569 25.0322 6.08188C24.5805 5.35938 24.6233 4.64163 25.2296 4.0237C25.7978 3.44143 26.4897 3.38914 27.1864 3.75752C27.4931 3.91913 27.7594 4.17819 28.0091 4.42536C35.8221 12.2231 43.628 20.028 51.4387 27.8282C51.8952 28.2845 52.3375 28.7361 52.3161 29.4419Z" fill="#F3C42E"/>
<path d="M111.275 45.4699C111.275 48.398 111.285 51.3236 111.273 54.2493C111.266 56.0389 110.227 57.1107 108.532 57.1226C106.867 57.1345 105.747 56.0341 105.743 54.273C105.724 48.3789 105.724 42.4872 105.743 36.5932C105.747 34.8249 106.846 33.7293 108.505 33.7269C110.253 33.7246 111.271 34.8012 111.275 36.6882C111.283 39.6163 111.275 42.5419 111.275 45.4699Z" fill="#492782"/>
<path d="M31.5589 1.62799C31.9631 1.58997 32.3792 1.84665 32.7643 2.23166C40.2374 9.70621 47.7176 17.176 55.1858 24.6529C56.0394 25.5085 56.0989 26.4616 55.4188 27.1698C54.6913 27.9279 53.7212 27.8828 52.8153 26.982C45.3589 19.5455 37.9144 12.0995 30.4675 4.65346C29.9064 4.09257 29.545 3.45088 29.9206 2.63331C30.2083 2.00588 30.6886 1.64225 31.5589 1.62799Z" fill="#F3C42E"/>
<path d="M15.2004 0.230519C15.6854 0.228143 16.1705 0.225765 16.6555 0.223389C16.9575 0.475313 17.2808 0.703471 17.5567 0.979162C23.3249 6.73302 29.086 12.4916 34.8471 18.2526C35.1538 18.5592 35.501 18.8349 35.6389 19.2698C35.8648 19.9804 35.7269 20.6079 35.1467 21.088C34.5666 21.568 33.9151 21.5918 33.2683 21.2329C33.033 21.1022 32.8404 20.8859 32.6454 20.6911C26.7963 14.8493 20.9472 9.00985 15.1053 3.1633C13.945 2.00112 13.983 1.22396 15.2004 0.230519Z" fill="#F3C42E"/>
<path d="M21.7938 33.727C22.3145 33.6914 22.6997 33.9409 23.0492 34.2903C27.3814 38.6229 31.7206 42.9484 36.0456 47.2905C36.7851 48.032 36.7851 49.0873 36.1241 49.7147C35.4845 50.3208 34.4906 50.3112 33.7868 49.6125C29.4143 45.2633 25.0584 40.8974 20.6906 36.5433C20.1461 35.9991 20.0391 35.3788 20.303 34.6991C20.5622 34.036 21.1067 33.7555 21.7938 33.727Z" fill="#F3C42E"/>
<path d="M46.9543 10.2291C47.5844 10.2386 48.0195 10.55 48.4237 10.954C51.8023 14.3383 55.1905 17.7132 58.5692 21.0999C59.418 21.9507 59.5108 22.9061 58.8522 23.6144C58.1579 24.3607 57.1379 24.3393 56.2248 23.4409C53.4643 20.7244 50.7324 17.9794 47.9981 15.2343C47.2182 14.4524 46.4502 13.6562 45.7179 12.8292C45.2875 12.342 45.2709 11.7383 45.5633 11.1655C45.8534 10.5951 46.3598 10.3099 46.9543 10.2291Z" fill="#F3C42E"/>
<path d="M42.0372 26.1598C42.6221 26.1883 43.0501 26.4474 43.4258 26.8229C45.7749 29.1758 48.1383 31.5144 50.4756 33.8791C51.2935 34.7062 51.3125 35.5689 50.6183 36.2843C49.8931 37.0329 48.9943 37.0116 48.1265 36.1536C45.763 33.815 43.4187 31.4573 41.0671 29.1068C40.525 28.5626 40.2564 27.9518 40.5868 27.1794C40.8745 26.521 41.4167 26.2644 42.0372 26.1598Z" fill="#F3C42E"/>
<path d="M32.094 54.2778C31.5947 54.2208 31.1429 54.0235 30.7601 53.6385C28.9745 51.8441 27.1674 50.0688 25.3937 48.2625C24.5567 47.4093 24.5092 46.4301 25.1868 45.7314C25.8977 44.9994 26.8964 45.0754 27.7951 45.9643C29.595 47.7468 31.3807 49.5412 33.1711 51.3308C33.7251 51.8845 33.9224 52.5191 33.6133 53.2725C33.3351 53.9427 32.7883 54.1946 32.094 54.2778Z" fill="#F3C42E"/>
<path d="M29.5022 55.3853C29.4998 56.6782 28.1374 57.5219 27.0984 56.74C25.4934 55.5302 24.1215 54.0353 22.8138 52.5095C22.3121 51.9225 22.431 51.143 22.9731 50.5559C23.5461 49.9333 24.3402 49.7241 24.9965 50.2517C26.5658 51.5113 27.9472 52.9801 29.2787 54.4893C29.5022 54.7388 29.5069 55.0668 29.5022 55.3853Z" fill="#F3C42E"/>
<path d="M59.2421 16.097C59.2683 17.0667 58.6073 17.7845 57.6729 17.8058C56.7955 17.8249 56.0941 17.1618 56.056 16.2777C56.0132 15.289 56.6338 14.5594 57.5587 14.5118C58.486 14.4595 59.216 15.1488 59.2421 16.097Z" fill="#F3C42E"/>
<path d="M39.895 23.8259C39.8713 24.7219 39.0938 25.442 38.1831 25.4135C37.2439 25.3826 36.5187 24.6315 36.6162 23.7142C36.7185 22.7659 37.2725 22.2097 38.2473 22.1741C39.1556 22.1432 39.9188 22.9346 39.895 23.8259Z" fill="#F3C42E"/>
<path d="M44.8167 8.05447C44.812 8.94571 44.025 9.71337 43.1357 9.69198C42.3202 9.67296 41.5807 8.90768 41.5665 8.06873C41.5498 7.10856 42.2156 6.42409 43.1738 6.4122C44.0963 6.4027 44.8215 7.1252 44.8167 8.05447Z" fill="#F3C42E"/>
<path d="M4.32749 23.0225C4.30609 23.9874 3.59517 24.6909 2.68214 24.6553C1.75722 24.6196 1.10811 23.89 1.13665 22.9179C1.1628 22.0196 1.8238 21.3802 2.72731 21.3755C3.67838 21.3731 4.34889 22.06 4.32749 23.0225Z" fill="#F3C42E"/>
<path d="M37.225 42.4849C38.2093 42.5062 38.8252 43.1693 38.7681 44.1628C38.7087 45.1657 38.1 45.6482 37.1608 45.6981C36.2787 45.7456 35.4917 44.9162 35.5036 44.0439C35.5154 43.1669 36.2929 42.4635 37.225 42.4849Z" fill="#F3C42E"/>
<path d="M94.9812 42.0903C95.3783 41.798 95.6469 41.577 95.937 41.3892C99.5392 39.0554 99.3109 33.6651 96.9404 31.2362C95.1975 29.4513 92.9768 28.8572 90.5658 28.8524C84.7429 28.8382 78.92 28.8453 73.097 28.85C70.8049 28.85 69.9252 29.7199 69.9205 31.9943C69.9133 34.4874 69.8895 36.9829 69.9371 39.476C69.9514 40.2152 69.7397 40.4409 69.0074 40.3958C68.1015 40.3387 67.1814 40.3411 66.2779 40.4314C64.8679 40.5693 64.0024 41.6245 64.0523 43.022C64.0999 44.3838 65.0819 45.3249 66.5228 45.3653C67.3145 45.3867 68.1134 45.4271 68.8981 45.3535C69.7445 45.2727 69.9537 45.5745 69.9395 46.3992C69.8895 49.4864 69.9038 52.5737 69.9252 55.661C69.9371 57.3769 70.8763 58.4416 72.4955 58.4464C79.3075 58.4678 86.1219 58.5082 92.934 58.3941C95.5708 58.349 97.6894 56.9966 99.1825 54.8078C102.321 50.2042 100.552 44.6999 94.9812 42.0903ZM76.4828 33.475C78.7773 33.513 81.0741 33.4893 83.3686 33.4893C85.5846 33.4893 87.8006 33.4797 90.0166 33.4916C92.0994 33.5011 93.4856 34.8416 93.5142 36.8475C93.5427 38.7939 91.9948 40.3649 89.9833 40.3696C85.4705 40.3839 80.96 40.3578 76.4472 40.391C75.7077 40.3958 75.5056 40.1914 75.527 39.4641C75.5793 37.7648 75.5888 36.0632 75.5246 34.3639C75.4961 33.5843 75.7957 33.4631 76.4828 33.475ZM95.2879 50.6581C94.9717 52.3907 93.8874 53.3865 91.8522 53.4626C89.2082 53.5648 86.5571 53.4863 83.9083 53.4863C83.9083 53.5054 83.9083 53.5267 83.9083 53.5458C81.4569 53.5458 79.0056 53.522 76.5542 53.56C75.8242 53.5719 75.5056 53.4269 75.527 52.5998C75.5865 50.468 75.5722 48.3338 75.5318 46.1995C75.5199 45.5174 75.7434 45.344 76.402 45.3487C81.067 45.3748 85.7344 45.3582 90.3994 45.3677C91.3956 45.3701 92.3586 45.5626 93.2526 46.0356C94.9526 46.9363 95.6707 48.5596 95.2879 50.6581Z" fill="#492782"/>
<path d="M108.517 67C110.027 67 111.252 65.7763 111.252 64.2668C111.252 62.7574 110.027 61.5337 108.517 61.5337C107.007 61.5337 105.783 62.7574 105.783 64.2668C105.783 65.7763 107.007 67 108.517 67Z" fill="#F3C42E"/>
</svg>
