<svg width="57" height="36" viewBox="0 0 57 36" fill="none" xmlns="http://www.w3.org/2000/svg">
<path d="M38.8636 15.4286C43.1645 15.4286 46.6105 11.9829 46.6105 7.71429C46.6105 3.44571 43.1645 0 38.8636 0C34.5627 0 31.0909 3.44571 31.0909 7.71429C31.0909 11.9829 34.5627 15.4286 38.8636 15.4286ZM18.1364 15.4286C22.4373 15.4286 25.8832 11.9829 25.8832 7.71429C25.8832 3.44571 22.4373 0 18.1364 0C13.8355 0 10.3636 3.44571 10.3636 7.71429C10.3636 11.9829 13.8355 15.4286 18.1364 15.4286ZM18.1364 20.5714C12.0995 20.5714 0 23.58 0 29.5714V36H36.2727V29.5714C36.2727 23.58 24.1732 20.5714 18.1364 20.5714ZM38.8636 20.5714C38.1123 20.5714 37.2573 20.6229 36.3505 20.7C39.3559 22.86 41.4545 25.7657 41.4545 29.5714V36H57V29.5714C57 23.58 44.9005 20.5714 38.8636 20.5714Z" fill="#000000"/>
</svg>
