<svg width="122" height="123" viewBox="0 0 122 123" fill="none" xmlns="http://www.w3.org/2000/svg">
<ellipse cx="61" cy="61.0966" rx="61" ry="61.0966" fill="#F3C42E"/>
<path d="M95.1181 68.5876C94.7466 68.5238 94.3716 68.4767 93.9798 68.4196C102.016 50.6005 93.6183 34.6934 83.2176 27.6941C70.9658 19.4448 55.1266 19.9589 43.0437 30.5469C37.9025 35.0529 34.6698 40.987 33.3726 47.7645C31.5756 57.1596 33.5652 65.7852 39.3111 73.722C37.5343 75.4155 35.8014 77.0284 34.1124 78.6816C31.2547 81.484 28.4037 84.2965 25.5831 87.1392C23.6306 89.1083 23.4854 91.6486 25.1406 93.4833C26.9512 95.4893 29.711 95.5195 31.7614 93.49C36.0818 89.2158 40.3853 84.9249 44.6685 80.6137C45.2461 80.0324 45.6582 79.8409 46.3811 80.402C47.2256 81.0573 48.1714 81.5882 49.1037 82.1258C52.7756 84.2495 56.7582 85.4759 61.2644 86.1144C60.582 86.7293 60.028 87.1224 59.6227 87.6332C59.3187 88.0162 59.2038 88.5471 59.0079 89.0142C59.474 89.1083 59.9672 89.3469 60.3996 89.2696C62.3318 88.9235 64.2437 88.4833 66.3549 88.0398C66.3853 88.7252 66.4326 89.2763 66.4326 89.8307C66.436 91.9342 67.6757 93.1674 69.7971 93.1607C70.9624 93.1573 72.1245 93.1573 73.2899 93.1573C80.4139 93.1674 87.538 93.1943 94.6621 93.1842C96.6686 93.1808 97.9826 91.8435 97.9894 89.8744C98.0029 83.8933 98.0029 77.9155 97.9928 71.9344C97.9894 70.0359 97.0064 68.9136 95.1181 68.5876ZM43.4052 79.3873C39.176 83.6144 34.9434 87.8381 30.7041 92.0552C29.89 92.865 29.0117 93.5337 27.745 93.0901C25.5932 92.3341 25.1237 90.0928 26.8161 88.3926C30.8527 84.3402 34.9231 80.3147 38.9699 76.269C39.3617 75.8759 39.686 75.4189 40.1117 74.9048C41.4899 76.3429 42.6451 77.5492 43.8646 78.8227C43.7666 78.9404 43.6078 79.1857 43.4052 79.3873ZM60.1902 84.2293C47.6006 82.2132 37.2032 72.1729 35.0278 59.6495C33.2916 49.6563 35.8892 40.8358 42.8005 33.4266C48.0836 27.7613 54.7078 24.6565 62.5074 23.9676C77.8974 22.6101 91.801 33.225 94.8614 48.2887C96.2194 54.9654 95.233 61.3934 92.3212 67.5426C92.0172 68.181 91.6524 68.5406 90.8552 68.5002C89.406 68.4263 87.9501 68.4801 86.4301 68.4801C94.4054 55.2241 89.8283 41.8271 81.7516 34.7942C73.9181 27.9763 61.4333 26.6659 52.2419 31.9414C42.1519 37.731 37.6424 49.0952 39.8211 59.4681C42.0573 70.1131 51.671 80.0291 66.1151 79.8207C66.4495 80.8657 66.2874 81.6756 65.4496 82.5526C63.9532 84.1151 62.3656 84.5754 60.1902 84.2293ZM73.4452 64.0245C73.5195 64.3504 73.6378 64.6629 73.8101 65.2173C71.8914 64.6058 70.1044 64.0917 68.3614 63.4566C67.6825 63.2113 67.7568 61.8202 68.4594 61.4472C71.0739 60.0561 72.6447 57.8283 73.6952 55.1502C73.8236 54.8209 74.1073 54.5118 74.3944 54.2833C76.6982 52.4453 76.5935 49.0481 74.2188 47.331C73.3236 46.6825 72.5028 45.913 71.736 45.1133C71.1212 44.4715 70.6686 44.3035 69.9051 44.9453C68.0236 46.528 65.6591 47.321 63.3046 47.2336C63.558 46.8203 63.7674 46.491 63.9667 46.1583C64.6288 45.0495 64.3146 44.4278 63.0479 44.4514C60.4469 44.5018 58.3019 45.7282 56.14 47.0219C54.2112 48.1745 53.6674 49.8075 54.0254 51.8203C54.1605 52.5696 54.6706 53.2752 55.0928 53.9473C55.5252 54.6361 56.1839 55.204 56.5251 55.9264C57.5959 58.2013 59.0586 60.0796 61.2644 61.3699C61.6157 61.5749 61.9568 62.1596 61.9264 62.5393C61.896 62.9156 61.4569 63.4297 61.0786 63.5742C59.5213 64.169 57.9202 64.6461 55.9948 65.2812C56.2278 64.6864 56.3765 64.3975 56.4609 64.0883C56.8291 62.7106 56.5352 62.4317 55.1503 62.2268C54.3565 62.1092 53.6201 61.6152 52.7013 61.2254C54.9915 58.3357 53.5626 55.54 53.0323 52.8014C52.4479 49.784 52.0932 46.8136 52.8803 43.7692C53.968 39.5589 56.6366 36.8506 60.7374 35.6981C65.3213 34.4111 69.6788 35.0361 73.5263 38.0502C75.8672 39.8849 76.8164 42.4353 77.3299 45.2477C77.9278 48.5105 77.1306 51.6153 76.428 54.7503C75.9618 56.8303 75.4315 58.9607 77.188 61.1448C76.3469 61.5413 75.6071 62.0957 74.7998 62.2234C73.2932 62.4586 73.1176 62.5561 73.4452 64.0245ZM66.1759 62.1024C66.1691 62.3578 66.1489 62.6098 66.1252 62.9627C65.3922 62.9627 64.6862 62.9627 63.9633 62.9627C63.9262 62.9123 63.8248 62.8417 63.8316 62.7846C64.0579 61.1347 63.3891 60.214 61.8352 59.458C59.795 58.4667 58.6735 56.5111 57.8932 54.4143C57.6027 53.6348 57.5182 52.825 56.4035 52.5662C55.6097 52.3814 55.4813 50.2343 56.0961 49.4177C56.8122 48.4634 59.8287 46.8808 61.19 46.7867C61.1157 47.0018 61.0583 47.1899 60.9874 47.3714C60.4401 48.7154 60.6665 49.1153 62.0818 49.1321C65.1524 49.1724 68.0675 48.6079 70.6145 46.8371C71.5367 47.5864 72.3069 48.2652 73.1345 48.8734C74.7153 50.0326 74.6106 51.8606 72.9149 52.7678C72.6616 52.9022 72.4724 53.2551 72.371 53.5508C71.334 56.4674 69.8072 58.9506 66.7738 60.2174C66.4867 60.3383 66.3211 60.8491 66.1995 61.212C66.1083 61.4774 66.1827 61.8034 66.1759 62.1024ZM75.8132 64.263C76.6914 63.5473 77.715 62.798 78.6338 61.9412C79.3904 61.2355 79.5255 60.4896 78.5527 59.7134C77.3907 58.7859 77.7352 57.5091 77.9447 56.2658C78.4378 53.3223 79.2148 50.3754 79.2722 47.4151C79.4343 39.0919 73.5702 33.4064 65.1963 33.3359C61.8217 33.309 58.714 34.065 55.934 35.987C52.9512 38.0502 51.5696 41.071 50.8873 44.4984C50.1543 48.1778 50.9312 51.7363 51.7318 55.2981C51.9176 56.128 52.1608 56.9815 52.1304 57.8148C52.1067 58.4432 51.8669 59.2967 51.4109 59.6293C50.2421 60.4828 50.6407 61.2758 51.3501 61.9748C52.2115 62.8282 53.235 63.5272 54.1301 64.2496C54.1639 64.888 54.2044 65.6474 54.2416 66.4068C54.2044 66.3665 54.1673 66.3296 54.1301 66.2892C53.6505 67.8416 53.1167 69.3806 52.7317 70.9565C52.6607 71.2388 53.1944 71.6689 53.4478 72.0318C53.7822 71.6924 54.37 71.3799 54.4139 71.0069C54.674 68.7489 55.8732 67.2805 57.9844 66.5782C60.5786 65.7146 63.1391 64.4143 65.9665 64.9082C68.9695 65.4324 71.9961 66.0439 74.4046 68.1071C74.3843 68.2314 74.3674 68.3558 74.3471 68.4801C72.9588 68.4801 71.5705 68.4767 70.1821 68.4801C67.4832 68.4868 66.2671 69.7368 66.2975 72.4418C66.3144 73.7757 66.2333 75.1131 66.3211 76.4404C66.4056 77.7273 65.855 78.0633 64.6524 77.9928C54.7618 77.4182 47.4182 72.8618 43.243 63.88C37.4465 51.4137 43.618 36.9145 56.5893 31.975C70.3139 26.7499 85.795 35.3352 88.4028 49.7033C89.5682 56.1247 88.3352 62.1226 84.6566 67.5863C84.1837 68.2886 83.6669 68.5406 82.8494 68.4969C81.6874 68.4364 80.5119 68.3961 79.3533 68.5036C77.5697 68.6716 76.1104 68.3759 75.7118 66.474C75.749 65.7046 75.7828 64.9384 75.8132 64.263ZM96.2261 89.3469C96.2261 90.9329 95.7329 91.4302 94.1554 91.4302C86.2105 91.4403 78.2656 91.447 70.324 91.4436C68.5438 91.4436 68.1858 91.0102 68.1655 89.199C68.1317 86.2689 68.7431 85.4222 64.9092 86.5243C64.541 86.6285 64.1559 86.6722 63.7809 86.7394C63.7438 86.7461 63.6999 86.7125 63.487 86.6419C64.8078 85.5062 66.1185 84.4813 67.2872 83.3187C67.7433 82.8684 68.1115 82.109 68.1283 81.4773C68.2094 78.4263 68.1587 75.3685 68.1554 72.3141C68.1554 70.7818 68.6013 70.2946 70.1247 70.2912C78.1136 70.2811 86.1024 70.2811 94.0879 70.2912C95.7768 70.2946 96.2194 70.7583 96.2227 72.4384C96.2295 78.0768 96.2329 83.7118 96.2261 89.3469Z" fill="white"/>
</svg>
