<svg width="84" height="101" viewBox="0 0 84 101" fill="none" xmlns="http://www.w3.org/2000/svg">
<g clip-path="url(#clip0_94_554)">
<path d="M77.5083 59.5269C77.1217 59.4603 76.7316 59.4112 76.3239 59.3516C84.6852 40.7542 75.9478 24.1524 65.1262 16.8474C52.3786 8.23785 35.8985 8.77441 23.3266 19.8248C17.9773 24.5276 14.6138 30.7209 13.2641 37.7944C11.3944 47.5998 13.4645 56.6021 19.4429 64.8855C17.5942 66.653 15.7912 68.3363 14.0339 70.0618C11.0605 72.9866 8.0941 75.9219 5.15937 78.8887C3.12791 80.9438 2.97678 83.5951 4.69895 85.5099C6.5828 87.6035 9.45427 87.6351 11.5877 85.5169C16.0829 81.056 20.5605 76.5777 25.0171 72.0783C25.6181 71.4716 26.0469 71.2717 26.799 71.8573C27.6777 72.5412 28.6618 73.0953 29.6318 73.6564C33.4523 75.8728 37.596 77.1528 42.2846 77.8191C41.5746 78.4609 40.9982 78.8712 40.5764 79.4043C40.2601 79.8041 40.1406 80.3582 39.9368 80.8456C40.4218 80.9438 40.9349 81.1928 41.3848 81.1121C43.3952 80.7509 45.3845 80.2915 47.5811 79.8286C47.6128 80.544 47.662 81.1192 47.662 81.6978C47.6655 83.8932 48.9554 85.1802 51.1626 85.1732C52.3751 85.1697 53.5841 85.1697 54.7967 85.1697C62.2091 85.1802 69.6215 85.2083 77.0339 85.1977C79.1216 85.1942 80.4888 83.7985 80.4958 81.7434C80.5098 75.501 80.5098 69.2622 80.4993 63.0198C80.4958 61.0384 79.473 59.8671 77.5083 59.5269ZM23.7026 70.7982C19.3023 75.21 14.8985 79.6182 10.4876 84.0194C9.64054 84.8646 8.72674 85.5625 7.40875 85.0995C5.16992 84.3105 4.68138 81.9713 6.44222 80.1968C10.6422 75.9675 14.8774 71.7661 19.0879 67.5438C19.4956 67.1335 19.833 66.6565 20.2759 66.12C21.7098 67.6209 22.9118 68.8799 24.1806 70.2091C24.0787 70.3318 23.9135 70.5878 23.7026 70.7982ZM41.1669 75.8517C28.0678 73.7476 17.2498 63.2688 14.9863 50.1984C13.1798 39.7688 15.8826 30.5631 23.0735 22.8302C28.5704 16.9175 35.4626 13.6771 43.578 12.9582C59.5907 11.5414 74.057 22.6198 77.2412 38.3415C78.6541 45.3098 77.6278 52.0185 74.5982 58.4362C74.2819 59.1026 73.9023 59.4778 73.0729 59.4357C71.5651 59.3586 70.0503 59.4147 68.4687 59.4147C76.7667 45.5798 72.0044 31.5976 63.6009 24.2576C55.4504 17.142 42.4603 15.7743 32.8969 21.2802C22.3987 27.3226 17.7067 39.1831 19.9736 50.0091C22.3003 61.1191 32.303 71.4681 47.3316 71.2506C47.6795 72.3413 47.5108 73.1865 46.6392 74.1018C45.0822 75.7325 43.4303 76.2129 41.1669 75.8517ZM54.9584 54.7645C55.0357 55.1047 55.1587 55.4308 55.338 56.0094C53.3416 55.3712 51.4824 54.8346 49.6688 54.1718C48.9624 53.9158 49.0397 52.4639 49.7708 52.0747C52.4911 50.6228 54.1254 48.2977 55.2185 45.5026C55.352 45.159 55.6472 44.8363 55.946 44.5978C58.343 42.6795 58.234 39.134 55.7632 37.342C54.8318 36.6651 53.9778 35.862 53.18 35.0274C52.5403 34.3576 52.0693 34.1822 51.275 34.852C49.3174 36.5038 46.8571 37.3315 44.4074 37.2403C44.671 36.8089 44.8889 36.4652 45.0963 36.1181C45.7852 34.9608 45.4583 34.312 44.1403 34.3365C41.434 34.3891 39.2022 35.6692 36.9529 37.0193C34.946 38.2222 34.3801 39.9266 34.7527 42.0273C34.8933 42.8093 35.424 43.5458 35.8633 44.2472C36.3132 44.9661 36.9985 45.5588 37.3535 46.3127C38.4677 48.6869 39.9895 50.6473 42.2846 51.994C42.6501 52.2079 43.0051 52.8181 42.9734 53.2144C42.9418 53.6072 42.4849 54.1438 42.0913 54.2946C40.471 54.9153 38.8051 55.4133 36.8017 56.0761C37.0442 55.4553 37.1989 55.1538 37.2867 54.8311C37.6698 53.3933 37.3641 53.1022 35.9231 52.8883C35.0971 52.7655 34.3309 52.25 33.3749 51.8432C35.7579 48.8272 34.2712 45.9094 33.7194 43.0513C33.1113 39.9021 32.7423 36.8019 33.5612 33.6246C34.6929 29.2304 37.4695 26.4038 41.7363 25.2009C46.5057 23.8578 51.0395 24.5101 55.0427 27.6558C57.4784 29.5706 58.466 32.2324 59.0002 35.1677C59.6223 38.5729 58.7929 41.8133 58.0618 45.0853C57.5768 47.2561 57.025 49.4795 58.8526 51.759C57.9775 52.1728 57.2077 52.7515 56.3677 52.8848C54.8002 53.1302 54.6175 53.2319 54.9584 54.7645ZM47.3949 52.7585C47.3878 53.025 47.3667 53.2881 47.3421 53.6563C46.5795 53.6563 45.8449 53.6563 45.0928 53.6563C45.0541 53.6037 44.9487 53.53 44.9557 53.4704C45.1912 51.7485 44.4953 50.7876 42.8785 49.9985C40.7557 48.964 39.5888 46.923 38.777 44.7346C38.4747 43.921 38.3868 43.0758 37.227 42.8058C36.4011 42.6129 36.2675 40.372 36.9072 39.5198C37.6523 38.5238 40.7908 36.872 42.2072 36.7739C42.1299 36.9983 42.0702 37.1947 41.9964 37.3841C41.427 38.7868 41.6625 39.2042 43.1351 39.2217C46.3299 39.2638 49.3631 38.6746 52.0131 36.8265C52.9726 37.6085 53.7739 38.3169 54.635 38.9517C56.2799 40.1616 56.1709 42.0693 54.4066 43.0162C54.143 43.1565 53.9462 43.5247 53.8407 43.8333C52.7617 46.8774 51.1731 49.469 48.0169 50.7911C47.7182 50.9174 47.546 51.4504 47.4195 51.8292C47.3246 52.1062 47.4019 52.4464 47.3949 52.7585ZM57.4221 55.0135C58.3359 54.2665 59.4009 53.4844 60.3569 52.5902C61.1441 51.8537 61.2847 51.0752 60.2725 50.2651C59.0635 49.2972 59.422 47.9645 59.6399 46.6669C60.153 43.5949 60.9614 40.5193 61.0211 37.4297C61.1898 28.743 55.0884 22.8092 46.3756 22.7356C42.8645 22.7075 39.631 23.4966 36.7385 25.5025C33.635 27.6558 32.1975 30.8085 31.4876 34.3856C30.7249 38.2257 31.5333 41.9396 32.3662 45.6569C32.5595 46.5232 32.8126 47.4139 32.781 48.2836C32.7564 48.9394 32.5068 49.8302 32.0323 50.1774C30.8163 51.0682 31.231 51.8958 31.9691 52.6252C32.8653 53.516 33.9303 54.2455 34.8616 54.9994C34.8968 55.6658 34.939 56.4583 34.9776 57.2509C34.939 57.2088 34.9003 57.1702 34.8616 57.1282C34.3626 58.7484 33.8072 60.3545 33.4066 61.9993C33.3328 62.2939 33.8881 62.7428 34.1517 63.1215C34.4996 62.7673 35.1112 62.4412 35.1569 62.0519C35.4275 59.6952 36.6752 58.1627 38.8718 57.4298C41.5711 56.5285 44.2352 55.1713 47.1769 55.6868C50.3015 56.2339 53.4506 56.8722 55.9565 59.0254C55.9354 59.1552 55.9179 59.2849 55.8968 59.4147C54.4523 59.4147 53.0077 59.4112 51.5632 59.4147C48.755 59.4217 47.4898 60.7263 47.5214 63.5494C47.539 64.9416 47.4546 66.3374 47.546 67.7226C47.6339 69.0658 47.061 69.4165 45.8098 69.3428C35.5189 68.7432 27.878 63.9877 23.5339 54.6137C17.5028 41.6029 23.9241 26.4705 37.4203 21.3152C51.7003 15.8619 67.8079 24.8222 70.5212 39.8179C71.7338 46.5197 70.4509 52.7795 66.6235 58.4818C66.1314 59.2148 65.5937 59.4778 64.7431 59.4322C63.5341 59.3691 62.311 59.327 61.1055 59.4392C59.2498 59.6146 57.7314 59.306 57.3167 57.321C57.3554 56.5179 57.3905 55.7184 57.4221 55.0135ZM78.6611 81.1928C78.6611 82.8481 78.148 83.3671 76.5067 83.3671C68.2402 83.3776 59.9738 83.3846 51.7108 83.3811C49.8586 83.3811 49.4861 82.9287 49.465 81.0385C49.4298 77.9804 50.066 77.0967 46.0769 78.247C45.6938 78.3557 45.2931 78.4013 44.903 78.4714C44.8643 78.4784 44.8186 78.4434 44.5972 78.3697C45.9714 77.1844 47.3351 76.1148 48.5512 74.9014C49.0257 74.4314 49.4088 73.6389 49.4263 72.9795C49.5107 69.7952 49.458 66.6039 49.4544 63.4161C49.4544 61.8169 49.9184 61.3084 51.5035 61.3049C59.8156 61.2944 68.1277 61.2944 76.4364 61.3049C78.1937 61.3084 78.6541 61.7924 78.6576 63.5459C78.6647 69.4305 78.6682 75.3117 78.6611 81.1928Z" fill="black"/>
</g>
<defs>
<clipPath id="clip0_94_554">
<rect width="84" height="101" fill="white"/>
</clipPath>
</defs>
</svg>
